<svg width="1920" height="1080" viewBox="0 0 1920 1080" fill="none" xmlns="http://www.w3.org/2000/svg">
<rect width="1920" height="1080" rx="40" fill="#1C1B1F"/>
<g opacity="0.8">
<path d="M1035.83 613.038L893.992 613.038C884.736 613.038 877.232 605.442 877.232 596.071L877.232 593.601C877.232 584.23 884.735 576.633 893.992 576.633L1035.83 576.633C1045.09 576.633 1052.59 584.23 1052.59 593.601L1052.59 596.071C1052.59 605.442 1045.09 613.038 1035.83 613.038Z" fill="#323435"/>
<path d="M971.022 343.84L958.777 343.84L958.777 281.163L971.022 281.163L971.022 343.84Z" fill="#323435"/>
<path d="M777.661 530.432C758.327 525.78 746.378 506.141 750.974 486.567C755.569 466.993 774.968 454.897 794.303 459.549C813.638 464.201 825.586 483.84 820.991 503.414C816.395 522.988 796.996 535.084 777.661 530.432Z" fill="#616161"/>
<path d="M1141.26 528.066C1121.88 523.616 1109.73 504.102 1114.13 484.481C1118.52 464.861 1137.8 452.563 1157.18 457.014C1176.56 461.464 1188.71 480.978 1184.31 500.598C1179.91 520.219 1160.64 532.517 1141.26 528.066Z" fill="#616161"/>
<path d="M972.026 330.243C972.026 330.243 1118.33 328.465 1141.46 456.843C1164.58 585.221 1040.89 587.529 1005.3 589.953C989.174 591.061 954.649 591.177 924.184 590.623C856.731 589.445 809.072 576.24 792.859 512.894C790.928 505.466 789.714 497.866 789.233 490.201C784.969 420.668 831.328 326.826 972.026 330.243Z" fill="#616161"/>
<path d="M865.898 525.637L1078.45 528.985C1083.75 529.079 1089.02 528.114 1093.96 526.145C1098.89 524.175 1103.39 521.24 1107.21 517.507C1111.02 513.774 1114.07 509.316 1116.18 504.389C1118.28 499.462 1119.41 494.162 1119.5 488.793C1119.59 483.423 1118.63 478.088 1116.68 473.092C1114.73 468.096 1111.83 463.538 1108.14 459.679C1104.45 455.82 1100.05 452.735 1095.18 450.6C1090.31 448.465 1085.08 447.323 1079.77 447.239L867.221 443.892C861.916 443.794 856.645 444.757 851.71 446.725C846.774 448.694 842.27 451.629 838.457 455.363C834.644 459.097 831.596 463.555 829.488 468.484C827.381 473.412 826.254 478.714 826.174 484.084C826.081 489.454 827.035 494.791 828.982 499.788C830.928 504.785 833.83 509.344 837.52 513.204C841.21 517.064 845.616 520.149 850.485 522.283C855.355 524.416 860.593 525.556 865.898 525.637Z" fill="#323435"/>
<path d="M1034.28 484.337C1034.77 486.882 1036 489.221 1037.81 491.058C1039.62 492.896 1041.92 494.15 1044.43 494.662C1046.94 495.173 1049.55 494.92 1051.92 493.933C1054.29 492.946 1056.31 491.271 1057.74 489.118C1059.17 486.965 1059.93 484.432 1059.94 481.839C1059.95 479.246 1059.19 476.709 1057.78 474.55C1056.36 472.39 1054.34 470.704 1051.98 469.706C1049.61 468.707 1047.01 468.44 1044.5 468.94C1042.83 469.271 1041.24 469.932 1039.82 470.886C1038.4 471.839 1037.18 473.066 1036.24 474.496C1035.29 475.926 1034.63 477.531 1034.29 479.22C1033.95 480.908 1033.95 482.647 1034.28 484.337Z" fill="black"/>
<path d="M885.851 481.937C886.341 484.483 887.567 486.825 889.372 488.666C891.177 490.507 893.482 491.765 895.993 492.28C898.505 492.795 901.111 492.544 903.482 491.559C905.852 490.574 907.881 488.899 909.312 486.747C910.742 484.594 911.509 482.061 911.517 479.466C911.524 476.872 910.771 474.334 909.353 472.173C907.936 470.012 905.916 468.325 903.551 467.327C901.186 466.328 898.582 466.062 896.067 466.562C892.7 467.232 889.733 469.227 887.817 472.109C885.902 474.992 885.195 478.527 885.851 481.937Z" fill="black"/>
<path d="M950.616 294.34C942.735 286.361 942.735 273.425 950.616 265.447C958.497 257.468 971.275 257.468 979.156 265.447C987.038 273.425 987.038 286.361 979.156 294.34C971.275 302.318 958.497 302.318 950.616 294.34Z" fill="#616161"/>
<path d="M997.132 478.289C996.175 478.404 996.653 482.906 993.826 489.07C992.224 492.608 989.891 495.757 986.985 498.304C983.578 501.338 979.338 503.247 974.831 503.775C970.299 504.071 965.786 502.977 961.878 500.636C958.571 498.689 955.711 496.053 953.487 492.902C949.61 487.431 949.268 482.837 948.31 482.906C947.922 482.906 947.535 484.06 947.535 486.23C947.622 489.322 948.401 492.353 949.815 495.095C951.94 499.239 955.081 502.761 958.937 505.322C963.704 508.723 969.51 510.295 975.318 509.758C981.125 509.221 986.554 506.609 990.633 502.39C993.963 499.167 996.414 495.127 997.748 490.663C998.699 487.684 998.949 484.522 998.478 481.429C998.09 479.282 997.497 478.22 997.132 478.289Z" fill="black"/>
<path d="M802.322 538.103C802.55 538.103 799.927 533.948 797.396 526.676C794.248 517.152 792.257 507.276 791.467 497.265C790.554 487.29 790.326 477.262 790.783 467.254C790.943 463.399 791.125 460.329 791.308 458.02C791.462 456.904 791.5 455.774 791.422 454.65C791.13 455.737 790.939 456.85 790.852 457.974C790.532 460.121 790.213 463.237 789.94 467.208C789.224 477.296 789.339 487.427 790.282 497.496C791.084 507.601 793.208 517.553 796.598 527.091C797.671 529.968 798.968 532.755 800.475 535.425C801.014 536.37 801.632 537.266 802.322 538.103Z" fill="#323435"/>
<path d="M1141.18 452.549C1141.31 453.67 1141.55 454.776 1141.89 455.85C1142.19 456.889 1142.5 458.159 1142.8 459.682C1143.1 461.206 1143.55 462.868 1143.83 464.784C1144.63 469.234 1145.16 473.728 1145.42 478.243C1145.73 483.767 1145.65 489.305 1145.2 494.818C1144.69 500.321 1143.8 505.783 1142.55 511.163C1141.5 515.564 1140.19 519.896 1138.63 524.137C1138.01 525.96 1137.31 527.553 1136.74 528.985C1136.17 530.416 1135.62 531.616 1135.16 532.586C1134.64 533.583 1134.21 534.626 1133.88 535.702C1134.53 534.787 1135.1 533.813 1135.57 532.794C1136.22 531.64 1136.8 530.453 1137.33 529.239C1137.97 527.853 1138.74 526.261 1139.4 524.437C1141.1 520.208 1142.5 515.865 1143.6 511.44C1144.93 506.008 1145.86 500.483 1146.38 494.911C1146.85 489.343 1146.89 483.748 1146.52 478.174C1146.2 473.619 1145.58 469.091 1144.65 464.623C1144.31 462.706 1143.83 461.021 1143.44 459.521C1143.05 458.02 1142.69 456.75 1142.34 455.712C1142.04 454.627 1141.65 453.569 1141.18 452.549Z" fill="#323435"/>
<path d="M990.565 339.846C990.74 339.863 990.915 339.863 991.09 339.846L992.617 340.008C993.986 340.146 995.992 340.192 998.569 340.492C1005.84 341.207 1013.05 342.418 1020.16 344.117C1056.94 352.642 1089.37 374.461 1111.38 405.478C1122.01 420.383 1130.06 437.011 1135.18 454.65C1135.98 457.143 1136.42 459.128 1136.8 460.444L1137.24 461.968C1137.28 462.144 1137.34 462.314 1137.42 462.476C1137.45 462.3 1137.45 462.12 1137.42 461.945C1137.42 461.529 1137.24 461.021 1137.1 460.398C1136.78 459.059 1136.44 457.051 1135.71 454.511C1133.81 447.339 1131.37 440.324 1128.41 433.527C1118.66 410.937 1103.83 390.974 1085.09 375.236C1066.26 359.617 1044.09 348.675 1020.35 343.286C1013.2 341.641 1005.93 340.553 998.615 340.031C996.015 339.8 994.054 339.823 992.64 339.754L991.09 339.754C990.725 339.8 990.565 339.823 990.565 339.846Z" fill="black"/>
<path d="M1133.7 517.557C1134.62 516.128 1135.32 514.573 1135.8 512.94C1138.5 505.225 1139.77 497.068 1139.52 488.885C1139.58 487.187 1139.38 485.488 1138.92 483.853C1138.56 483.853 1139.06 491.563 1137.6 500.89C1136.14 510.216 1133.36 517.419 1133.7 517.557Z" fill="black"/>
<path d="M1172.08 505.622C1172.08 505.622 1172.6 505.253 1173.31 504.375C1174.32 503.132 1175.18 501.777 1175.89 500.336C1178.32 495.563 1179.26 490.15 1178.56 484.826C1177.86 479.501 1175.57 474.52 1171.99 470.555C1170.94 469.341 1169.75 468.256 1168.45 467.323C1168.01 466.943 1167.5 466.646 1166.95 466.446C1166.81 466.631 1168.86 468.039 1171.35 471.063C1174.61 475.018 1176.7 479.829 1177.37 484.937C1178.04 490.045 1177.27 495.24 1175.14 499.92C1173.54 503.591 1171.92 505.484 1172.08 505.622Z" fill="black"/>
<path d="M963.588 265.65C965.368 265.451 967.161 265.413 968.947 265.534C971.074 265.723 973.13 266.403 974.957 267.521C976.784 268.639 978.334 270.166 979.487 271.985C980.641 273.804 981.368 275.866 981.612 278.013C981.856 280.16 981.611 282.335 980.896 284.372C980.28 286.061 979.517 287.691 978.616 289.243C978.616 289.243 979.072 288.966 979.71 288.227C980.586 287.159 981.28 285.949 981.763 284.649C982.633 282.493 982.977 280.157 982.766 277.838C982.555 275.519 981.796 273.286 980.552 271.327C979.309 269.368 977.617 267.741 975.621 266.584C973.624 265.427 971.382 264.774 969.084 264.68C967.719 264.584 966.347 264.717 965.025 265.073C963.999 265.234 963.588 265.58 963.588 265.65Z" fill="black"/>
<path d="M764.833 477.62C765.084 477.897 768.619 474.457 773.955 471.871C779.291 469.286 784.148 468.524 784.102 468.155C780.385 468.061 776.709 468.969 773.453 470.786C770.025 472.238 767.047 474.599 764.833 477.62Z" fill="black"/>
<path d="M901.015 436.435C901.015 436.758 929.018 437.035 963.543 437.035C998.067 437.035 1026.09 436.758 1026.09 436.435C1026.09 436.112 998.09 435.835 963.543 435.835C928.995 435.835 901.015 436.066 901.015 436.435Z" fill="black"/>
<path d="M1007.74 580.788C1008.08 580.886 1008.43 580.94 1008.78 580.95L1011.84 581.227C1013.16 581.342 1014.78 581.435 1016.67 581.481C1018.57 581.527 1020.71 581.619 1023.08 581.481C1027.85 581.481 1033.5 581.134 1039.77 580.465C1046.56 579.666 1053.3 578.486 1059.96 576.933C1066.6 575.32 1073.14 573.332 1079.57 570.977C1084.8 569.037 1089.93 566.826 1094.94 564.351C1097.22 563.336 1098.97 562.274 1100.64 561.373C1102.3 560.473 1103.72 559.665 1104.86 559.065L1107.48 557.449C1107.79 557.274 1108.08 557.065 1108.34 556.826C1108.34 556.826 1107.98 556.826 1107.36 557.241L1104.63 558.649C1103.46 559.296 1102.03 560.058 1100.34 560.958C1098.65 561.858 1096.74 562.782 1094.57 563.751C1090.28 565.783 1085.06 567.953 1079.18 570.1C1066.39 574.741 1053.13 577.9 1039.64 579.518C1033.44 580.257 1027.8 580.673 1023.08 580.788C1020.8 580.927 1018.52 580.788 1016.67 580.788C1014.83 580.788 1013.19 580.788 1011.86 580.788L1008.81 580.788C1008.45 580.728 1008.09 580.728 1007.74 580.788Z" fill="black"/>
</g>
<path d="M651.865 794.571V692.578H692.104C699.806 692.578 706.38 693.956 711.825 696.712C717.303 699.434 721.47 703.302 724.325 708.315C727.213 713.296 728.658 719.155 728.658 725.895C728.658 732.668 727.197 738.495 724.275 743.375C721.353 748.223 717.12 751.941 711.576 754.531C706.065 757.12 699.391 758.415 691.556 758.415H664.614V741.084H688.07C692.187 741.084 695.606 740.52 698.329 739.391C701.051 738.262 703.077 736.569 704.405 734.312C705.766 732.054 706.446 729.248 706.446 725.895C706.446 722.509 705.766 719.653 704.405 717.329C703.077 715.005 701.035 713.246 698.279 712.051C695.557 710.822 692.12 710.208 687.97 710.208H673.428V794.571H651.865ZM706.944 748.156L732.293 794.571H708.488L683.687 748.156H706.944ZM776.828 796.065C769.092 796.065 762.402 794.421 756.758 791.134C751.147 787.814 746.814 783.199 743.76 777.29C740.705 771.347 739.178 764.458 739.178 756.622C739.178 748.721 740.705 741.815 743.76 735.905C746.814 729.962 751.147 725.347 756.758 722.061C762.402 718.74 769.092 717.08 776.828 717.08C784.563 717.08 791.237 718.74 796.847 722.061C802.492 725.347 806.841 729.962 809.895 735.905C812.95 741.815 814.477 748.721 814.477 756.622C814.477 764.458 812.95 771.347 809.895 777.29C806.841 783.199 802.492 787.814 796.847 791.134C791.237 794.421 784.563 796.065 776.828 796.065ZM776.927 779.63C780.446 779.63 783.385 778.634 785.742 776.642C788.099 774.617 789.875 771.861 791.071 768.375C792.299 764.889 792.913 760.922 792.913 756.473C792.913 752.024 792.299 748.057 791.071 744.571C789.875 741.084 788.099 738.329 785.742 736.304C783.385 734.278 780.446 733.266 776.927 733.266C773.375 733.266 770.387 734.278 767.963 736.304C765.573 738.329 763.763 741.084 762.535 744.571C761.339 748.057 760.742 752.024 760.742 756.473C760.742 760.922 761.339 764.889 762.535 768.375C763.763 771.861 765.573 774.617 767.963 776.642C770.387 778.634 773.375 779.63 776.927 779.63ZM828.67 794.571V692.578H849.885V730.925H850.533C851.462 728.867 852.807 726.775 854.567 724.65C856.36 722.492 858.684 720.699 861.539 719.272C864.427 717.811 868.013 717.08 872.296 717.08C877.874 717.08 883.02 718.541 887.734 721.463C892.449 724.351 896.217 728.717 899.039 734.561C901.861 740.371 903.272 747.658 903.272 756.423C903.272 764.956 901.894 772.16 899.139 778.037C896.416 783.88 892.698 788.312 887.983 791.334C883.302 794.322 878.056 795.816 872.246 795.816C868.129 795.816 864.627 795.135 861.738 793.774C858.883 792.413 856.542 790.703 854.716 788.644C852.89 786.553 851.496 784.444 850.533 782.32H849.587V794.571H828.67ZM849.437 756.324C849.437 760.872 850.068 764.84 851.33 768.226C852.591 771.612 854.417 774.252 856.808 776.144C859.198 778.004 862.103 778.933 865.523 778.933C868.976 778.933 871.897 777.987 874.288 776.095C876.678 774.169 878.488 771.513 879.716 768.126C880.978 764.707 881.609 760.772 881.609 756.324C881.609 751.908 880.994 748.023 879.766 744.67C878.538 741.317 876.728 738.694 874.338 736.802C871.947 734.909 869.009 733.963 865.523 733.963C862.07 733.963 859.148 734.876 856.758 736.702C854.401 738.528 852.591 741.118 851.33 744.471C850.068 747.824 849.437 751.775 849.437 756.324ZM951.99 796.065C944.254 796.065 937.564 794.421 931.92 791.134C926.309 787.814 921.976 783.199 918.922 777.29C915.868 771.347 914.34 764.458 914.34 756.622C914.34 748.721 915.868 741.815 918.922 735.905C921.976 729.962 926.309 725.347 931.92 722.061C937.564 718.74 944.254 717.08 951.99 717.08C959.726 717.08 966.399 718.74 972.01 722.061C977.654 725.347 982.003 729.962 985.058 735.905C988.112 741.815 989.639 748.721 989.639 756.622C989.639 764.458 988.112 771.347 985.058 777.29C982.003 783.199 977.654 787.814 972.01 791.134C966.399 794.421 959.726 796.065 951.99 796.065ZM952.089 779.63C955.609 779.63 958.547 778.634 960.904 776.642C963.261 774.617 965.038 771.861 966.233 768.375C967.461 764.889 968.075 760.922 968.075 756.473C968.075 752.024 967.461 748.057 966.233 744.571C965.038 741.084 963.261 738.329 960.904 736.304C958.547 734.278 955.609 733.266 952.089 733.266C948.537 733.266 945.549 734.278 943.125 736.304C940.735 738.329 938.925 741.084 937.697 744.571C936.502 748.057 935.904 752.024 935.904 756.473C935.904 760.922 936.502 764.889 937.697 768.375C938.925 771.861 940.735 774.617 943.125 776.642C945.549 778.634 948.537 779.63 952.089 779.63ZM962 708.913L951.99 696.762L941.98 708.913H923.902V708.216L944.071 686.303H959.858L980.078 708.216V708.913H962Z" fill="#5B5D5D"/>
<path d="M1178.68 668.23C1182.41 663.995 1187.97 661.558 1193.91 661.558H1236.68C1239.9 666.896 1246.09 670.492 1253.23 670.492C1263.72 670.492 1272.18 662.719 1272.18 653.089C1272.18 643.459 1263.72 635.685 1253.23 635.685C1246.28 635.685 1240.28 639.108 1236.93 644.213H1196.31C1183.17 644.213 1170.79 649.666 1162.58 659.006L1145.33 678.672L1157.46 692.479L1178.68 668.23Z" fill="#5B5D5D"/>
<path d="M1253.17 765.922C1246.09 765.922 1239.9 769.519 1236.61 774.856H1193.85C1187.91 774.856 1182.35 772.419 1178.62 768.184L1157.27 743.878L1145.14 757.684L1162.39 777.35C1170.6 786.748 1183.04 792.143 1196.12 792.143H1236.74C1240.03 797.248 1246.09 800.671 1253.04 800.671C1263.53 800.671 1271.99 792.898 1271.99 783.268C1271.99 773.638 1263.59 765.922 1253.17 765.922Z" fill="#5B5D5D"/>
<path d="M1148.99 701.587L1095.74 641.08H1029.28C1025.87 637.89 1021.13 635.975 1015.82 635.975C1005.34 635.975 996.871 643.749 996.871 653.379C996.871 663.009 1005.34 670.782 1015.82 670.782C1021.26 670.782 1026.18 668.636 1029.66 665.271H1083.1L1095.67 679.6V679.948L1126.63 715.161C1126.38 716.322 1126.25 717.482 1126.25 718.642C1126.25 719.86 1126.38 721.021 1126.63 722.123L1114.44 735.872H1114.37L1106.73 744.573L1095.55 757.162V757.278L1082.91 771.665H1029.66C1029.47 771.433 1029.22 771.259 1029.03 771.085V731.289H1028.9C1032.56 728.098 1034.84 723.631 1034.84 718.7C1034.84 709.07 1026.37 701.297 1015.89 701.297C1005.4 701.297 996.935 709.07 996.935 718.7C996.935 723.689 999.209 728.156 1002.87 731.289H1002.75V771.085C999.209 774.275 996.935 778.684 996.935 783.557C996.935 793.187 1005.4 800.961 1015.89 800.961C1021.13 800.961 1025.87 798.988 1029.34 795.798H1030.67H1095.48L1148.8 735.698C1157.52 734.131 1164.15 727.112 1164.15 718.642C1164.15 710.23 1157.65 703.211 1148.99 701.587ZM1015.89 660.746C1011.46 660.746 1007.86 657.44 1007.86 653.379C1007.86 649.318 1011.46 646.011 1015.89 646.011C1020.31 646.011 1023.91 649.26 1023.91 653.379C1023.91 657.498 1020.31 660.746 1015.89 660.746ZM1015.89 710.985C1020.31 710.985 1023.91 714.291 1023.91 718.352C1023.91 722.413 1020.31 725.72 1015.89 725.72C1011.46 725.72 1007.86 722.413 1007.86 718.352C1007.8 714.291 1011.4 710.985 1015.89 710.985ZM1015.89 790.693C1011.46 790.693 1007.86 787.386 1007.86 783.325C1007.86 779.264 1011.46 775.958 1015.89 775.958C1020.31 775.958 1023.91 779.264 1023.91 783.325C1023.91 787.386 1020.31 790.693 1015.89 790.693ZM1145.2 726.01C1140.78 726.01 1137.18 722.703 1137.18 718.642C1137.18 714.581 1140.78 711.275 1145.2 711.275C1149.62 711.275 1153.22 714.581 1153.22 718.642C1153.22 722.703 1149.62 726.01 1145.2 726.01Z" fill="#076CA1"/>
</svg>
