<svg width="2721" height="1697" viewBox="0 0 2721 1697" fill="none" xmlns="http://www.w3.org/2000/svg">
<line x1="1341.36" y1="848.73" x2="411.357" y2="242.729" stroke="black" stroke-width="28"/>
<line x1="1341.36" y1="848.73" x2="411.357" y2="242.729" stroke="#121212" stroke-width="28"/>
<line x1="1357.04" y1="848.461" x2="459.04" y2="1478.46" stroke="black" stroke-width="28"/>
<line x1="1357.04" y1="848.461" x2="459.04" y2="1478.46" stroke="#121212" stroke-width="28"/>
<line x1="1356.9" y1="825.441" x2="2278.9" y2="1455.44" stroke="black" stroke-width="28"/>
<line x1="1356.9" y1="825.441" x2="2278.9" y2="1455.44" stroke="#121212" stroke-width="28"/>
<line x1="1341.31" y1="825.301" x2="2263.31" y2="219.301" stroke="black" stroke-width="28"/>
<line x1="1341.31" y1="825.301" x2="2263.31" y2="219.301" stroke="#121212" stroke-width="28"/>
<circle cx="1360.5" cy="841.5" r="459.5" fill="#121212"/>
<g opacity="0.8">
<path d="M1436.83 893.039L1294.99 893.039C1285.73 893.039 1278.23 885.442 1278.23 876.071L1278.23 873.601C1278.23 864.23 1285.73 856.633 1294.99 856.633L1436.83 856.633C1446.09 856.633 1453.59 864.23 1453.59 873.601L1453.59 876.071C1453.59 885.442 1446.09 893.039 1436.83 893.039Z" fill="#323435"/>
<path d="M1372.02 623.84L1359.78 623.84L1359.78 561.163L1372.02 561.163L1372.02 623.84Z" fill="#323435"/>
<path d="M1178.66 810.432C1159.32 805.779 1147.38 786.14 1151.97 766.567C1156.57 746.993 1175.97 734.897 1195.3 739.549C1214.63 744.201 1226.58 763.84 1221.99 783.414C1217.39 802.988 1197.99 815.084 1178.66 810.432Z" fill="#616161"/>
<path d="M1542.26 808.066C1522.88 803.616 1510.73 784.103 1515.12 764.482C1519.52 744.861 1538.8 732.563 1558.18 737.014C1577.56 741.464 1589.71 760.978 1585.31 780.599C1580.91 800.219 1561.64 812.517 1542.26 808.066Z" fill="#616161"/>
<path d="M1373.02 610.243C1373.02 610.243 1519.33 608.465 1542.45 736.843C1565.58 865.221 1441.89 867.53 1406.29 869.953C1390.17 871.062 1355.65 871.177 1325.18 870.623C1257.73 869.446 1210.07 856.241 1193.86 792.895C1191.93 785.467 1190.71 777.867 1190.23 770.202C1185.97 700.668 1232.33 606.826 1373.02 610.243Z" fill="#616161"/>
<path d="M1266.9 805.637L1479.45 808.984C1484.75 809.079 1490.02 808.114 1494.96 806.144C1499.89 804.175 1504.39 801.24 1508.2 797.506C1512.02 793.773 1515.07 789.316 1517.17 784.388C1519.28 779.461 1520.41 774.162 1520.49 768.793C1520.58 763.423 1519.63 758.087 1517.68 753.092C1515.73 748.096 1512.83 743.538 1509.14 739.679C1505.45 735.819 1501.05 732.734 1496.18 730.6C1491.31 728.465 1486.07 727.323 1480.77 727.239L1268.22 723.892C1262.92 723.794 1257.64 724.757 1252.71 726.725C1247.77 728.693 1243.27 731.629 1239.46 735.362C1235.64 739.096 1232.59 743.555 1230.49 748.484C1228.38 753.412 1227.25 758.713 1227.17 764.083C1227.08 769.454 1228.03 774.791 1229.98 779.788C1231.93 784.785 1234.83 789.344 1238.52 793.204C1242.21 797.064 1246.61 800.149 1251.48 802.282C1256.35 804.416 1261.59 805.556 1266.9 805.637Z" fill="#323435"/>
<path d="M1435.28 764.337C1435.77 766.882 1437 769.221 1438.81 771.058C1440.61 772.896 1442.92 774.15 1445.43 774.662C1447.94 775.173 1450.55 774.92 1452.91 773.933C1455.28 772.946 1457.31 771.271 1458.74 769.118C1460.17 766.965 1460.93 764.432 1460.94 761.839C1460.94 759.246 1460.19 756.709 1458.77 754.55C1457.36 752.39 1455.34 750.704 1452.97 749.706C1450.61 748.707 1448.01 748.44 1445.49 748.94C1443.82 749.271 1442.23 749.932 1440.82 750.886C1439.4 751.839 1438.18 753.066 1437.23 754.496C1436.28 755.926 1435.62 757.531 1435.29 759.22C1434.95 760.908 1434.95 762.647 1435.28 764.337Z" fill="black"/>
<path d="M1286.85 761.936C1287.34 764.483 1288.57 766.825 1290.37 768.666C1292.18 770.507 1294.48 771.765 1296.99 772.279C1299.5 772.794 1302.11 772.544 1304.48 771.559C1306.85 770.574 1308.88 768.899 1310.31 766.747C1311.74 764.594 1312.51 762.06 1312.52 759.466C1312.52 756.872 1311.77 754.334 1310.35 752.173C1308.93 750.012 1306.92 748.325 1304.55 747.326C1302.19 746.327 1299.58 746.061 1297.07 746.561C1293.7 747.231 1290.73 749.227 1288.82 752.109C1286.9 754.992 1286.19 758.526 1286.85 761.936Z" fill="black"/>
<path d="M1351.62 574.34C1343.73 566.362 1343.73 553.426 1351.62 545.447C1359.5 537.468 1372.27 537.468 1380.16 545.447C1388.04 553.426 1388.04 566.362 1380.16 574.34C1372.27 582.319 1359.5 582.319 1351.62 574.34Z" fill="#616161"/>
<path d="M1398.13 758.289C1397.17 758.405 1397.65 762.906 1394.82 769.07C1393.22 772.608 1390.89 775.757 1387.98 778.304C1384.58 781.339 1380.34 783.247 1375.83 783.776C1371.3 784.071 1366.78 782.977 1362.88 780.636C1359.57 778.689 1356.71 776.053 1354.48 772.902C1350.61 767.431 1350.27 762.837 1349.31 762.906C1348.92 762.906 1348.53 764.061 1348.53 766.231C1348.62 769.322 1349.4 772.354 1350.81 775.096C1352.94 779.239 1356.08 782.761 1359.93 785.322C1364.7 788.723 1370.51 790.295 1376.32 789.758C1382.12 789.221 1387.55 786.609 1391.63 782.39C1394.96 779.167 1397.41 775.127 1398.75 770.663C1399.7 767.685 1399.95 764.522 1399.48 761.429C1399.09 759.282 1398.5 758.22 1398.13 758.289Z" fill="black"/>
<path d="M1203.32 818.103C1203.55 818.103 1200.93 813.948 1198.4 806.676C1195.25 797.152 1193.26 787.276 1192.47 777.265C1191.55 767.289 1191.33 757.262 1191.78 747.254C1191.94 743.399 1192.13 740.328 1192.31 738.02C1192.46 736.903 1192.5 735.774 1192.42 734.649C1192.13 735.737 1191.94 736.85 1191.85 737.974C1191.53 740.121 1191.21 743.237 1190.94 747.208C1190.22 757.296 1190.34 767.427 1191.28 777.496C1192.08 787.601 1194.21 797.553 1197.6 807.091C1198.67 809.968 1199.97 812.755 1201.47 815.425C1202.01 816.37 1202.63 817.266 1203.32 818.103Z" fill="#323435"/>
<path d="M1542.18 732.549C1542.31 733.67 1542.55 734.776 1542.89 735.85C1543.18 736.889 1543.5 738.159 1543.8 739.682C1544.1 741.206 1544.55 742.868 1544.83 744.784C1545.62 749.234 1546.16 753.728 1546.42 758.243C1546.73 763.767 1546.65 769.305 1546.19 774.818C1545.68 780.321 1544.8 785.782 1543.55 791.163C1542.5 795.564 1541.19 799.896 1539.63 804.137C1539.01 805.96 1538.3 807.553 1537.73 808.985C1537.16 810.416 1536.62 811.616 1536.16 812.586C1535.64 813.582 1535.21 814.626 1534.88 815.702C1535.53 814.787 1536.1 813.813 1536.57 812.794C1537.21 811.64 1537.8 810.453 1538.33 809.238C1538.96 807.853 1539.74 806.26 1540.4 804.437C1542.09 800.207 1543.5 795.865 1544.6 791.44C1545.93 786.008 1546.86 780.483 1547.38 774.911C1547.84 769.343 1547.89 763.748 1547.52 758.174C1547.2 753.619 1546.57 749.091 1545.65 744.622C1545.3 742.706 1544.83 741.021 1544.44 739.521C1544.05 738.02 1543.68 736.75 1543.34 735.712C1543.04 734.627 1542.65 733.569 1542.18 732.549Z" fill="#323435"/>
<path d="M1391.56 619.846C1391.74 619.863 1391.91 619.863 1392.09 619.846L1393.62 620.008C1394.98 620.146 1396.99 620.193 1399.57 620.493C1406.84 621.207 1414.05 622.418 1421.16 624.117C1457.93 632.643 1490.37 654.461 1512.38 685.478C1523.01 700.383 1531.06 717.011 1536.18 734.65C1536.98 737.143 1537.42 739.128 1537.8 740.444L1538.24 741.968C1538.28 742.144 1538.34 742.314 1538.42 742.476C1538.45 742.3 1538.45 742.12 1538.42 741.945C1538.42 741.529 1538.24 741.021 1538.1 740.398C1537.78 739.059 1537.44 737.051 1536.71 734.511C1534.81 727.339 1532.37 720.324 1529.41 713.527C1519.66 690.938 1504.83 670.974 1486.08 655.236C1467.26 639.617 1445.09 628.675 1421.35 623.286C1414.19 621.641 1406.93 620.553 1399.61 620.031C1397.01 619.8 1395.05 619.823 1393.64 619.754L1392.09 619.754C1391.72 619.8 1391.56 619.823 1391.56 619.846Z" fill="black"/>
<path d="M1534.7 797.557C1535.62 796.128 1536.32 794.573 1536.8 792.94C1539.5 785.225 1540.76 777.068 1540.52 768.885C1540.58 767.187 1540.38 765.488 1539.92 763.853C1539.56 763.853 1540.06 771.563 1538.6 780.89C1537.14 790.216 1534.36 797.419 1534.7 797.557Z" fill="black"/>
<path d="M1573.08 785.622C1573.08 785.622 1573.6 785.253 1574.31 784.376C1575.32 783.132 1576.18 781.777 1576.89 780.336C1579.32 775.563 1580.25 770.15 1579.56 764.826C1578.86 759.501 1576.57 754.521 1572.99 750.555C1571.94 749.341 1570.75 748.256 1569.45 747.324C1569.01 746.943 1568.5 746.646 1567.95 746.446C1567.81 746.631 1569.86 748.039 1572.35 751.063C1575.61 755.018 1577.7 759.829 1578.37 764.937C1579.04 770.045 1578.26 775.24 1576.13 779.92C1574.54 783.591 1572.92 785.484 1573.08 785.622Z" fill="black"/>
<path d="M1364.59 545.65C1366.37 545.452 1368.16 545.413 1369.94 545.535C1372.07 545.724 1374.13 546.403 1375.95 547.522C1377.78 548.64 1379.33 550.167 1380.49 551.985C1381.64 553.804 1382.37 555.866 1382.61 558.013C1382.85 560.161 1382.61 562.336 1381.89 564.372C1381.28 566.061 1380.52 567.692 1379.61 569.243C1379.61 569.243 1380.07 568.966 1380.71 568.228C1381.58 567.159 1382.28 565.95 1382.76 564.649C1383.63 562.494 1383.97 560.158 1383.76 557.839C1383.55 555.52 1382.79 553.286 1381.55 551.327C1380.31 549.369 1378.61 547.742 1376.62 546.585C1374.62 545.428 1372.38 544.775 1370.08 544.681C1368.72 544.585 1367.35 544.717 1366.02 545.073C1365 545.235 1364.59 545.581 1364.59 545.65Z" fill="black"/>
<path d="M1165.83 757.62C1166.08 757.897 1169.62 754.457 1174.95 751.872C1180.29 749.286 1185.15 748.524 1185.1 748.155C1181.38 748.061 1177.71 748.97 1174.45 750.787C1171.02 752.238 1168.05 754.599 1165.83 757.62Z" fill="black"/>
<path d="M1302.01 716.435C1302.01 716.758 1330.02 717.035 1364.54 717.035C1399.06 717.035 1427.09 716.758 1427.09 716.435C1427.09 716.112 1399.09 715.835 1364.54 715.835C1329.99 715.835 1302.01 716.066 1302.01 716.435Z" fill="black"/>
<path d="M1408.73 860.789C1409.08 860.886 1409.43 860.941 1409.78 860.95L1412.84 861.227C1414.16 861.343 1415.78 861.435 1417.67 861.481C1419.57 861.528 1421.71 861.62 1424.08 861.481C1428.85 861.481 1434.5 861.135 1440.77 860.466C1447.56 859.666 1454.3 858.487 1460.95 856.934C1467.6 855.321 1474.14 853.332 1480.57 850.978C1485.8 849.038 1490.93 846.826 1495.94 844.352C1498.22 843.336 1499.97 842.274 1501.64 841.374C1503.3 840.474 1504.71 839.666 1505.85 839.065L1508.48 837.449C1508.79 837.275 1509.08 837.066 1509.34 836.826C1509.34 836.826 1508.98 836.826 1508.36 837.242L1505.63 838.65C1504.46 839.296 1503.03 840.058 1501.34 840.958C1499.65 841.859 1497.74 842.782 1495.57 843.752C1491.28 845.783 1486.06 847.953 1480.18 850.1C1467.39 854.741 1454.13 857.901 1440.64 859.519C1434.43 860.258 1428.8 860.673 1424.08 860.789C1421.8 860.927 1419.52 860.789 1417.67 860.789C1415.83 860.789 1414.18 860.789 1412.86 860.789L1409.81 860.789C1409.45 860.729 1409.09 860.729 1408.73 860.789Z" fill="black"/>
</g>
<path d="M1052.86 1074.57V972.578H1093.1C1100.81 972.578 1107.38 973.956 1112.82 976.712C1118.3 979.434 1122.47 983.302 1125.32 988.315C1128.21 993.295 1129.66 999.155 1129.66 1005.89C1129.66 1012.67 1128.2 1018.49 1125.28 1023.37C1122.35 1028.22 1118.12 1031.94 1112.58 1034.53C1107.06 1037.12 1100.39 1038.41 1092.56 1038.41H1065.61V1021.08H1089.07C1093.19 1021.08 1096.61 1020.52 1099.33 1019.39C1102.05 1018.26 1104.08 1016.57 1105.4 1014.31C1106.77 1012.05 1107.45 1009.25 1107.45 1005.89C1107.45 1002.51 1106.77 999.653 1105.4 997.329C1104.08 995.005 1102.03 993.245 1099.28 992.05C1096.56 990.822 1093.12 990.208 1088.97 990.208H1074.43V1074.57H1052.86ZM1107.94 1028.16L1133.29 1074.57H1109.49L1084.69 1028.16H1107.94ZM1177.83 1076.06C1170.09 1076.06 1163.4 1074.42 1157.76 1071.13C1152.15 1067.81 1147.81 1063.2 1144.76 1057.29C1141.71 1051.35 1140.18 1044.46 1140.18 1036.62C1140.18 1028.72 1141.71 1021.81 1144.76 1015.9C1147.81 1009.96 1152.15 1005.35 1157.76 1002.06C1163.4 998.74 1170.09 997.08 1177.83 997.08C1185.56 997.08 1192.24 998.74 1197.85 1002.06C1203.49 1005.35 1207.84 1009.96 1210.9 1015.9C1213.95 1021.81 1215.48 1028.72 1215.48 1036.62C1215.48 1044.46 1213.95 1051.35 1210.9 1057.29C1207.84 1063.2 1203.49 1067.81 1197.85 1071.13C1192.24 1074.42 1185.56 1076.06 1177.83 1076.06ZM1177.93 1059.63C1181.45 1059.63 1184.38 1058.63 1186.74 1056.64C1189.1 1054.62 1190.88 1051.86 1192.07 1048.38C1193.3 1044.89 1193.91 1040.92 1193.91 1036.47C1193.91 1032.02 1193.3 1028.06 1192.07 1024.57C1190.88 1021.08 1189.1 1018.33 1186.74 1016.3C1184.38 1014.28 1181.45 1013.27 1177.93 1013.27C1174.37 1013.27 1171.39 1014.28 1168.96 1016.3C1166.57 1018.33 1164.76 1021.08 1163.53 1024.57C1162.34 1028.06 1161.74 1032.02 1161.74 1036.47C1161.74 1040.92 1162.34 1044.89 1163.53 1048.38C1164.76 1051.86 1166.57 1054.62 1168.96 1056.64C1171.39 1058.63 1174.37 1059.63 1177.93 1059.63ZM1229.67 1074.57V972.578H1250.89V1010.92H1251.53C1252.46 1008.87 1253.81 1006.77 1255.57 1004.65C1257.36 1002.49 1259.68 1000.7 1262.54 999.271C1265.43 997.811 1269.01 997.08 1273.3 997.08C1278.87 997.08 1284.02 998.541 1288.73 1001.46C1293.45 1004.35 1297.22 1008.72 1300.04 1014.56C1302.86 1020.37 1304.27 1027.66 1304.27 1036.42C1304.27 1044.96 1302.89 1052.16 1300.14 1058.04C1297.42 1063.88 1293.7 1068.31 1288.98 1071.33C1284.3 1074.32 1279.06 1075.82 1273.25 1075.82C1269.13 1075.82 1265.63 1075.13 1262.74 1073.77C1259.88 1072.41 1257.54 1070.7 1255.72 1068.64C1253.89 1066.55 1252.5 1064.44 1251.53 1062.32H1250.59V1074.57H1229.67ZM1250.44 1036.32C1250.44 1040.87 1251.07 1044.84 1252.33 1048.23C1253.59 1051.61 1255.42 1054.25 1257.81 1056.14C1260.2 1058 1263.1 1058.93 1266.52 1058.93C1269.98 1058.93 1272.9 1057.99 1275.29 1056.09C1277.68 1054.17 1279.49 1051.51 1280.72 1048.13C1281.98 1044.71 1282.61 1040.77 1282.61 1036.32C1282.61 1031.91 1281.99 1028.02 1280.77 1024.67C1279.54 1021.32 1277.73 1018.69 1275.34 1016.8C1272.95 1014.91 1270.01 1013.96 1266.52 1013.96C1263.07 1013.96 1260.15 1014.88 1257.76 1016.7C1255.4 1018.53 1253.59 1021.12 1252.33 1024.47C1251.07 1027.82 1250.44 1031.77 1250.44 1036.32ZM1352.99 1076.06C1345.25 1076.06 1338.56 1074.42 1332.92 1071.13C1327.31 1067.81 1322.98 1063.2 1319.92 1057.29C1316.87 1051.35 1315.34 1044.46 1315.34 1036.62C1315.34 1028.72 1316.87 1021.81 1319.92 1015.9C1322.98 1009.96 1327.31 1005.35 1332.92 1002.06C1338.56 998.74 1345.25 997.08 1352.99 997.08C1360.73 997.08 1367.4 998.74 1373.01 1002.06C1378.65 1005.35 1383 1009.96 1386.06 1015.9C1389.11 1021.81 1390.64 1028.72 1390.64 1036.62C1390.64 1044.46 1389.11 1051.35 1386.06 1057.29C1383 1063.2 1378.65 1067.81 1373.01 1071.13C1367.4 1074.42 1360.73 1076.06 1352.99 1076.06ZM1353.09 1059.63C1356.61 1059.63 1359.55 1058.63 1361.9 1056.64C1364.26 1054.62 1366.04 1051.86 1367.23 1048.38C1368.46 1044.89 1369.08 1040.92 1369.08 1036.47C1369.08 1032.02 1368.46 1028.06 1367.23 1024.57C1366.04 1021.08 1364.26 1018.33 1361.9 1016.3C1359.55 1014.28 1356.61 1013.27 1353.09 1013.27C1349.54 1013.27 1346.55 1014.28 1344.13 1016.3C1341.73 1018.33 1339.93 1021.08 1338.7 1024.57C1337.5 1028.06 1336.9 1032.02 1336.9 1036.47C1336.9 1040.92 1337.5 1044.89 1338.7 1048.38C1339.93 1051.86 1341.73 1054.62 1344.13 1056.64C1346.55 1058.63 1349.54 1059.63 1353.09 1059.63ZM1363 988.913L1352.99 976.761L1342.98 988.913H1324.9V988.216L1345.07 966.303H1360.86L1381.08 988.216V988.913H1363Z" fill="#5B5D5D"/>
<path d="M1579.69 948.228C1583.41 943.993 1588.97 941.557 1594.91 941.557H1637.68C1640.9 946.894 1647.09 950.491 1654.23 950.491C1664.72 950.491 1673.18 942.717 1673.18 933.087C1673.18 923.457 1664.72 915.684 1654.23 915.684C1647.28 915.684 1641.28 919.106 1637.93 924.211H1597.31C1584.17 924.211 1571.79 929.664 1563.58 939.004L1546.33 958.67L1558.46 972.477L1579.69 948.228Z" fill="#5B5D5D"/>
<path d="M1654.17 1045.92C1647.09 1045.92 1640.9 1049.52 1637.62 1054.85H1594.85C1588.91 1054.85 1583.35 1052.42 1579.62 1048.18L1558.27 1023.88L1546.14 1037.68L1563.39 1057.35C1571.6 1066.75 1584.04 1072.14 1597.12 1072.14H1637.74C1641.03 1077.25 1647.09 1080.67 1654.04 1080.67C1664.53 1080.67 1672.99 1072.89 1672.99 1063.27C1672.99 1053.64 1664.59 1045.92 1654.17 1045.92Z" fill="#5B5D5D"/>
<path d="M1549.99 981.584L1496.74 921.078H1430.28C1426.87 917.887 1422.13 915.973 1416.82 915.973C1406.34 915.973 1397.87 923.746 1397.87 933.376C1397.87 943.006 1406.34 950.78 1416.82 950.78C1422.26 950.78 1427.18 948.633 1430.66 945.269H1484.1L1496.67 959.597V959.945L1527.63 995.159C1527.38 996.319 1527.25 997.479 1527.25 998.639C1527.25 999.858 1527.38 1001.02 1527.63 1002.12L1515.44 1015.87H1515.37L1507.73 1024.57L1496.55 1037.16V1037.28L1483.91 1051.66H1430.66C1430.47 1051.43 1430.22 1051.26 1430.03 1051.08V1011.29H1429.9C1433.56 1008.1 1435.84 1003.63 1435.84 998.697C1435.84 989.067 1427.37 981.294 1416.89 981.294C1406.4 981.294 1397.93 989.067 1397.93 998.697C1397.93 1003.69 1400.21 1008.15 1403.87 1011.29H1403.75V1051.08C1400.21 1054.27 1397.93 1058.68 1397.93 1063.55C1397.93 1073.18 1406.4 1080.96 1416.89 1080.96C1422.13 1080.96 1426.87 1078.99 1430.34 1075.79H1431.67H1496.48L1549.8 1015.69C1558.52 1014.13 1565.15 1007.11 1565.15 998.639C1565.15 990.228 1558.65 983.208 1549.99 981.584ZM1416.89 940.744C1412.46 940.744 1408.86 937.437 1408.86 933.376C1408.86 929.315 1412.46 926.009 1416.89 926.009C1421.31 926.009 1424.91 929.257 1424.91 933.376C1424.91 937.495 1421.31 940.744 1416.89 940.744ZM1416.89 990.982C1421.31 990.982 1424.91 994.289 1424.91 998.349C1424.91 1002.41 1421.31 1005.72 1416.89 1005.72C1412.46 1005.72 1408.86 1002.41 1408.86 998.349C1408.8 994.289 1412.4 990.982 1416.89 990.982ZM1416.89 1070.69C1412.46 1070.69 1408.86 1067.38 1408.86 1063.32C1408.86 1059.26 1412.46 1055.95 1416.89 1055.95C1421.31 1055.95 1424.91 1059.26 1424.91 1063.32C1424.91 1067.38 1421.31 1070.69 1416.89 1070.69ZM1546.2 1006.01C1541.78 1006.01 1538.18 1002.7 1538.18 998.639C1538.18 994.579 1541.78 991.272 1546.2 991.272C1550.62 991.272 1554.22 994.579 1554.22 998.639C1554.22 1002.7 1550.62 1006.01 1546.2 1006.01Z" fill="#076CA1"/>
<rect width="901" height="461" rx="81" fill="#121212"/>
<rect x="1820" width="901" height="461" rx="81" fill="#121212"/>
<rect x="1820" y="1236" width="901" height="461" rx="81" fill="#121212"/>
<rect y="1236" width="901" height="461" rx="81" fill="#121212"/>
<path d="M244.865 282V180.008H313.59V197.787H266.428V222.089H310.054V239.868H266.428V264.221H313.789V282H244.865ZM351.551 237.777V282H330.335V205.506H350.555V219.002H351.451C353.144 214.553 355.983 211.034 359.967 208.444C363.951 205.821 368.782 204.51 374.459 204.51C379.771 204.51 384.403 205.672 388.353 207.996C392.304 210.32 395.375 213.64 397.567 217.956C399.758 222.239 400.853 227.352 400.853 233.295V282H379.638V237.08C379.671 232.398 378.476 228.746 376.053 226.123C373.629 223.467 370.292 222.139 366.043 222.139C363.187 222.139 360.664 222.754 358.473 223.982C356.315 225.21 354.622 227.003 353.393 229.36C352.198 231.684 351.584 234.49 351.551 237.777ZM481.22 227.319L461.797 228.514C461.465 226.854 460.752 225.36 459.656 224.032C458.56 222.671 457.116 221.591 455.323 220.795C453.564 219.965 451.455 219.55 448.999 219.55C445.712 219.55 442.939 220.247 440.682 221.641C438.424 223.003 437.295 224.829 437.295 227.119C437.295 228.945 438.026 230.489 439.487 231.751C440.947 233.012 443.454 234.025 447.006 234.789L460.851 237.578C468.288 239.105 473.833 241.562 477.485 244.948C481.137 248.335 482.963 252.783 482.963 258.295C482.963 263.308 481.485 267.707 478.53 271.492C475.609 275.277 471.592 278.232 466.479 280.357C461.399 282.448 455.539 283.494 448.899 283.494C438.773 283.494 430.705 281.386 424.696 277.169C418.72 272.92 415.217 267.143 414.188 259.839L435.054 258.743C435.685 261.831 437.212 264.188 439.636 265.815C442.06 267.408 445.164 268.205 448.949 268.205C452.667 268.205 455.655 267.491 457.913 266.064C460.204 264.603 461.366 262.727 461.399 260.436C461.366 258.511 460.552 256.934 458.959 255.705C457.365 254.443 454.908 253.481 451.588 252.817L438.341 250.177C430.871 248.683 425.31 246.094 421.658 242.408C418.039 238.723 416.23 234.025 416.23 228.315C416.23 223.401 417.558 219.168 420.214 215.615C422.903 212.063 426.671 209.324 431.518 207.398C436.399 205.473 442.109 204.51 448.65 204.51C458.311 204.51 465.914 206.552 471.459 210.635C477.036 214.719 480.29 220.28 481.22 227.319ZM496.322 282V205.506H517.537V282H496.322ZM506.979 195.645C503.825 195.645 501.119 194.599 498.862 192.508C496.637 190.383 495.525 187.843 495.525 184.888C495.525 181.967 496.637 179.46 498.862 177.368C501.119 175.243 503.825 174.181 506.979 174.181C510.133 174.181 512.823 175.243 515.047 177.368C517.305 179.46 518.433 181.967 518.433 184.888C518.433 187.843 517.305 190.383 515.047 192.508C512.823 194.599 510.133 195.645 506.979 195.645ZM555.747 237.777V282H534.532V205.506H554.751V219.002H555.647C557.34 214.553 560.179 211.034 564.163 208.444C568.147 205.821 572.978 204.51 578.655 204.51C583.967 204.51 588.599 205.672 592.55 207.996C596.501 210.32 599.572 213.64 601.763 217.956C603.954 222.239 605.05 227.352 605.05 233.295V282H583.834V237.08C583.868 232.398 582.672 228.746 580.249 226.123C577.825 223.467 574.489 222.139 570.239 222.139C567.384 222.139 564.86 222.754 562.669 223.982C560.511 225.21 558.818 227.003 557.589 229.36C556.394 231.684 555.78 234.49 555.747 237.777ZM656.332 283.494C648.596 283.494 641.907 281.851 636.262 278.564C630.652 275.244 626.319 270.629 623.264 264.719C620.21 258.776 618.683 251.887 618.683 244.052C618.683 236.15 620.21 229.244 623.264 223.335C626.319 217.392 630.652 212.777 636.262 209.49C641.907 206.17 648.596 204.51 656.332 204.51C664.068 204.51 670.741 206.17 676.352 209.49C681.996 212.777 686.346 217.392 689.4 223.335C692.454 229.244 693.982 236.15 693.982 244.052C693.982 251.887 692.454 258.776 689.4 264.719C686.346 270.629 681.996 275.244 676.352 278.564C670.741 281.851 664.068 283.494 656.332 283.494ZM656.432 267.06C659.951 267.06 662.889 266.064 665.247 264.072C667.604 262.046 669.38 259.291 670.575 255.805C671.804 252.319 672.418 248.351 672.418 243.902C672.418 239.453 671.804 235.486 670.575 232C669.38 228.514 667.604 225.758 665.247 223.733C662.889 221.708 659.951 220.695 656.432 220.695C652.879 220.695 649.891 221.708 647.468 223.733C645.077 225.758 643.268 228.514 642.039 232C640.844 235.486 640.246 239.453 640.246 243.902C640.246 248.351 640.844 252.319 642.039 255.805C643.268 259.291 645.077 262.046 647.468 264.072C649.891 266.064 652.879 267.06 656.432 267.06Z" fill="#E9E9E9"/>
<path d="M1965.86 282V180.008H2006.1C2013.84 180.008 2020.43 181.485 2025.87 184.44C2031.32 187.362 2035.47 191.429 2038.32 196.641C2041.21 201.821 2042.66 207.797 2042.66 214.57C2042.66 221.342 2041.2 227.319 2038.28 232.498C2035.35 237.677 2031.12 241.711 2025.58 244.6C2020.06 247.488 2013.39 248.932 2005.56 248.932H1979.91V231.651H2002.07C2006.22 231.651 2009.64 230.937 2012.33 229.51C2015.05 228.049 2017.08 226.04 2018.4 223.484C2019.77 220.894 2020.45 217.923 2020.45 214.57C2020.45 211.183 2019.77 208.228 2018.4 205.705C2017.08 203.149 2015.05 201.173 2012.33 199.779C2009.61 198.351 2006.15 197.637 2001.97 197.637H1987.43V282H1965.86ZM2089.89 283.494C2082.03 283.494 2075.25 281.9 2069.57 278.713C2063.93 275.493 2059.58 270.944 2056.53 265.068C2053.47 259.158 2051.95 252.169 2051.95 244.101C2051.95 236.233 2053.47 229.327 2056.53 223.384C2059.58 217.441 2063.88 212.81 2069.43 209.49C2075 206.17 2081.54 204.51 2089.05 204.51C2094.09 204.51 2098.79 205.323 2103.14 206.95C2107.52 208.544 2111.34 210.951 2114.6 214.171C2117.88 217.392 2120.44 221.442 2122.26 226.323C2124.09 231.17 2125 236.847 2125 243.354V249.181H2060.41V236.034H2105.03C2105.03 232.979 2104.37 230.273 2103.04 227.916C2101.71 225.559 2099.87 223.716 2097.51 222.388C2095.19 221.027 2092.48 220.346 2089.4 220.346C2086.18 220.346 2083.32 221.093 2080.83 222.588C2078.37 224.048 2076.45 226.024 2075.05 228.514C2073.66 230.971 2072.94 233.71 2072.91 236.731V249.231C2072.91 253.016 2073.61 256.286 2075 259.042C2076.43 261.797 2078.44 263.922 2081.03 265.416C2083.62 266.91 2086.69 267.657 2090.24 267.657C2092.6 267.657 2094.76 267.325 2096.72 266.661C2098.68 265.997 2100.35 265.001 2101.75 263.673C2103.14 262.345 2104.2 260.718 2104.93 258.793L2124.56 260.088C2123.56 264.802 2121.52 268.919 2118.43 272.438C2115.38 275.924 2111.42 278.647 2106.58 280.606C2101.76 282.531 2096.2 283.494 2089.89 283.494ZM2202.49 227.319L2183.07 228.514C2182.74 226.854 2182.03 225.36 2180.93 224.032C2179.83 222.671 2178.39 221.591 2176.6 220.795C2174.84 219.965 2172.73 219.55 2170.27 219.55C2166.99 219.55 2164.21 220.247 2161.96 221.641C2159.7 223.003 2158.57 224.829 2158.57 227.119C2158.57 228.945 2159.3 230.489 2160.76 231.751C2162.22 233.012 2164.73 234.025 2168.28 234.789L2182.13 237.578C2189.56 239.105 2195.11 241.562 2198.76 244.948C2202.41 248.335 2204.24 252.783 2204.24 258.295C2204.24 263.308 2202.76 267.707 2199.8 271.492C2196.88 275.277 2192.87 278.232 2187.75 280.357C2182.67 282.448 2176.81 283.494 2170.17 283.494C2160.05 283.494 2151.98 281.386 2145.97 277.169C2139.99 272.92 2136.49 267.143 2135.46 259.839L2156.33 258.743C2156.96 261.831 2158.49 264.188 2160.91 265.815C2163.33 267.408 2166.44 268.205 2170.22 268.205C2173.94 268.205 2176.93 267.491 2179.19 266.064C2181.48 264.603 2182.64 262.727 2182.67 260.436C2182.64 258.511 2181.83 256.934 2180.23 255.705C2178.64 254.443 2176.18 253.481 2172.86 252.817L2159.62 250.177C2152.14 248.683 2146.58 246.094 2142.93 242.408C2139.31 238.723 2137.5 234.025 2137.5 228.315C2137.5 223.401 2138.83 219.168 2141.49 215.615C2144.18 212.063 2147.95 209.324 2152.79 207.398C2157.67 205.473 2163.38 204.51 2169.92 204.51C2179.59 204.51 2187.19 206.552 2192.73 210.635C2198.31 214.719 2201.56 220.28 2202.49 227.319ZM2268.14 310.685V269.749H2267.5C2266.5 271.874 2265.09 273.982 2263.26 276.074C2261.47 278.132 2259.13 279.842 2256.24 281.203C2253.39 282.564 2249.9 283.245 2245.78 283.245C2239.97 283.245 2234.71 281.751 2230 278.763C2225.31 275.742 2221.6 271.309 2218.84 265.466C2216.12 259.59 2214.76 252.385 2214.76 243.852C2214.76 235.088 2216.17 227.8 2218.99 221.99C2221.81 216.147 2225.56 211.781 2230.25 208.892C2234.96 205.971 2240.12 204.51 2245.73 204.51C2250.02 204.51 2253.59 205.24 2256.44 206.701C2259.33 208.129 2261.65 209.921 2263.41 212.08C2265.21 214.204 2266.57 216.296 2267.5 218.354H2268.39V205.506H2289.31V310.685H2268.14ZM2252.51 266.363C2255.93 266.363 2258.81 265.433 2261.17 263.574C2263.56 261.681 2265.39 259.042 2266.65 255.655C2267.94 252.269 2268.59 248.301 2268.59 243.753C2268.59 239.204 2267.96 235.254 2266.7 231.9C2265.44 228.547 2263.61 225.957 2261.22 224.131C2258.83 222.305 2255.93 221.392 2252.51 221.392C2249.02 221.392 2246.08 222.338 2243.69 224.231C2241.3 226.123 2239.49 228.746 2238.26 232.099C2237.03 235.453 2236.42 239.337 2236.42 243.753C2236.42 248.202 2237.03 252.136 2238.26 255.556C2239.52 258.942 2241.33 261.598 2243.69 263.524C2246.08 265.416 2249.02 266.363 2252.51 266.363ZM2355.39 249.43V205.506H2376.61V282H2356.24V268.106H2355.44C2353.72 272.588 2350.85 276.19 2346.83 278.912C2342.85 281.635 2337.98 282.996 2332.24 282.996C2327.12 282.996 2322.63 281.834 2318.74 279.51C2314.86 277.186 2311.82 273.882 2309.63 269.6C2307.47 265.317 2306.37 260.187 2306.34 254.211V205.506H2327.56V250.426C2327.59 254.942 2328.8 258.511 2331.19 261.133C2333.58 263.756 2336.79 265.068 2340.8 265.068C2343.36 265.068 2345.75 264.487 2347.97 263.325C2350.2 262.129 2351.99 260.37 2353.35 258.046C2354.75 255.722 2355.43 252.85 2355.39 249.43ZM2393.58 282V205.506H2414.79V282H2393.58ZM2404.24 195.645C2401.08 195.645 2398.38 194.599 2396.12 192.508C2393.9 190.383 2392.78 187.843 2392.78 184.888C2392.78 181.967 2393.9 179.46 2396.12 177.368C2398.38 175.243 2401.08 174.181 2404.24 174.181C2407.39 174.181 2410.08 175.243 2412.3 177.368C2414.56 179.46 2415.69 181.967 2415.69 184.888C2415.69 187.843 2414.56 190.383 2412.3 192.508C2410.08 194.599 2407.39 195.645 2404.24 195.645ZM2495.44 227.319L2476.01 228.514C2475.68 226.854 2474.97 225.36 2473.87 224.032C2472.78 222.671 2471.33 221.591 2469.54 220.795C2467.78 219.965 2465.67 219.55 2463.21 219.55C2459.93 219.55 2457.15 220.247 2454.9 221.641C2452.64 223.003 2451.51 224.829 2451.51 227.119C2451.51 228.945 2452.24 230.489 2453.7 231.751C2455.16 233.012 2457.67 234.025 2461.22 234.789L2475.07 237.578C2482.5 239.105 2488.05 241.562 2491.7 244.948C2495.35 248.335 2497.18 252.783 2497.18 258.295C2497.18 263.308 2495.7 267.707 2492.75 271.492C2489.82 275.277 2485.81 278.232 2480.69 280.357C2475.61 282.448 2469.75 283.494 2463.11 283.494C2452.99 283.494 2444.92 281.386 2438.91 277.169C2432.93 272.92 2429.43 267.143 2428.4 259.839L2449.27 258.743C2449.9 261.831 2451.43 264.188 2453.85 265.815C2456.27 267.408 2459.38 268.205 2463.16 268.205C2466.88 268.205 2469.87 267.491 2472.13 266.064C2474.42 264.603 2475.58 262.727 2475.61 260.436C2475.58 258.511 2474.77 256.934 2473.17 255.705C2471.58 254.443 2469.12 253.481 2465.8 252.817L2452.56 250.177C2445.09 248.683 2439.53 246.094 2435.87 242.408C2432.25 238.723 2430.44 234.025 2430.44 228.315C2430.44 223.401 2431.77 219.168 2434.43 215.615C2437.12 212.063 2440.89 209.324 2445.73 207.398C2450.61 205.473 2456.32 204.51 2462.87 204.51C2472.53 204.51 2480.13 206.552 2485.67 210.635C2491.25 214.719 2494.51 220.28 2495.44 227.319ZM2532.35 283.444C2527.47 283.444 2523.12 282.598 2519.3 280.904C2515.48 279.178 2512.46 276.638 2510.24 273.285C2508.05 269.898 2506.95 265.682 2506.95 260.635C2506.95 256.386 2507.73 252.817 2509.29 249.928C2510.85 247.04 2512.98 244.716 2515.67 242.956C2518.36 241.196 2521.41 239.868 2524.83 238.972C2528.28 238.076 2531.9 237.445 2535.69 237.08C2540.14 236.615 2543.72 236.183 2546.44 235.785C2549.17 235.353 2551.14 234.722 2552.37 233.892C2553.6 233.062 2554.21 231.834 2554.21 230.207V229.908C2554.21 226.754 2553.22 224.314 2551.22 222.588C2549.27 220.861 2546.48 219.998 2542.86 219.998C2539.04 219.998 2536 220.844 2533.74 222.538C2531.49 224.198 2529.99 226.289 2529.26 228.813L2509.64 227.219C2510.64 222.571 2512.6 218.554 2515.52 215.167C2518.44 211.748 2522.21 209.125 2526.82 207.299C2531.47 205.439 2536.85 204.51 2542.96 204.51C2547.21 204.51 2551.27 205.008 2555.16 206.004C2559.08 207 2562.55 208.544 2565.57 210.635C2568.62 212.727 2571.03 215.416 2572.79 218.703C2574.55 221.957 2575.43 225.858 2575.43 230.406V282H2555.31V271.392H2554.71C2553.48 273.783 2551.84 275.891 2549.78 277.717C2547.72 279.51 2545.25 280.921 2542.36 281.95C2539.47 282.946 2536.13 283.444 2532.35 283.444ZM2538.43 268.803C2541.55 268.803 2544.3 268.189 2546.69 266.96C2549.08 265.698 2550.96 264.005 2552.32 261.88C2553.68 259.756 2554.36 257.349 2554.36 254.659V246.542C2553.7 246.973 2552.78 247.372 2551.62 247.737C2550.49 248.069 2549.22 248.384 2547.79 248.683C2546.36 248.949 2544.93 249.198 2543.51 249.43C2542.08 249.629 2540.78 249.812 2539.62 249.978C2537.13 250.343 2534.96 250.924 2533.1 251.721C2531.24 252.518 2529.79 253.597 2528.76 254.958C2527.74 256.286 2527.22 257.946 2527.22 259.938C2527.22 262.827 2528.27 265.034 2530.36 266.562C2532.48 268.056 2535.17 268.803 2538.43 268.803Z" fill="#E9E9E9"/>
<path d="M1931.43 1416.01V1518H1909.86V1416.01H1931.43ZM1969.99 1473.78V1518H1948.77V1441.51H1968.99V1455H1969.89C1971.58 1450.55 1974.42 1447.03 1978.4 1444.44C1982.39 1441.82 1987.22 1440.51 1992.9 1440.51C1998.21 1440.51 2002.84 1441.67 2006.79 1444C2010.74 1446.32 2013.81 1449.64 2016 1453.96C2018.19 1458.24 2019.29 1463.35 2019.29 1469.29V1518H1998.07V1473.08C1998.11 1468.4 1996.91 1464.75 1994.49 1462.12C1992.07 1459.47 1988.73 1458.14 1984.48 1458.14C1981.62 1458.14 1979.1 1458.75 1976.91 1459.98C1974.75 1461.21 1973.06 1463 1971.83 1465.36C1970.63 1467.68 1970.02 1470.49 1969.99 1473.78ZM2076.7 1441.51V1457.44H2030.63V1441.51H2076.7ZM2041.09 1423.18H2062.31V1494.49C2062.31 1496.45 2062.6 1497.98 2063.2 1499.08C2063.8 1500.14 2064.63 1500.89 2065.69 1501.32C2066.79 1501.75 2068.05 1501.96 2069.48 1501.96C2070.47 1501.96 2071.47 1501.88 2072.46 1501.72C2073.46 1501.52 2074.22 1501.37 2074.76 1501.27L2078.09 1517.05C2077.03 1517.39 2075.54 1517.77 2073.61 1518.2C2071.68 1518.66 2069.34 1518.95 2066.59 1519.05C2061.48 1519.25 2056.99 1518.56 2053.14 1517C2049.32 1515.44 2046.35 1513.02 2044.23 1509.73C2042.1 1506.45 2041.06 1502.3 2041.09 1497.28V1423.18ZM2124.56 1519.49C2116.69 1519.49 2109.91 1517.9 2104.24 1514.71C2098.59 1511.49 2094.24 1506.94 2091.19 1501.07C2088.14 1495.16 2086.61 1488.17 2086.61 1480.1C2086.61 1472.23 2088.14 1465.33 2091.19 1459.38C2094.24 1453.44 2098.54 1448.81 2104.09 1445.49C2109.67 1442.17 2116.21 1440.51 2123.71 1440.51C2128.76 1440.51 2133.45 1441.32 2137.8 1442.95C2142.19 1444.54 2146 1446.95 2149.26 1450.17C2152.54 1453.39 2155.1 1457.44 2156.93 1462.32C2158.75 1467.17 2159.67 1472.85 2159.67 1479.35V1485.18H2095.07V1472.03H2139.7C2139.7 1468.98 2139.03 1466.27 2137.7 1463.92C2136.38 1461.56 2134.53 1459.72 2132.18 1458.39C2129.85 1457.03 2127.15 1456.35 2124.06 1456.35C2120.84 1456.35 2117.98 1457.09 2115.49 1458.59C2113.04 1460.05 2111.11 1462.02 2109.72 1464.51C2108.32 1466.97 2107.61 1469.71 2107.57 1472.73V1485.23C2107.57 1489.02 2108.27 1492.29 2109.67 1495.04C2111.09 1497.8 2113.1 1499.92 2115.69 1501.42C2118.28 1502.91 2121.35 1503.66 2124.9 1503.66C2127.26 1503.66 2129.42 1503.33 2131.38 1502.66C2133.34 1502 2135.01 1501 2136.41 1499.67C2137.8 1498.35 2138.87 1496.72 2139.6 1494.79L2159.22 1496.09C2158.22 1500.8 2156.18 1504.92 2153.09 1508.44C2150.04 1511.92 2146.09 1514.65 2141.24 1516.61C2136.43 1518.53 2130.86 1519.49 2124.56 1519.49ZM2207.97 1548.28C2201.1 1548.28 2195.21 1547.33 2190.29 1545.44C2185.41 1543.58 2181.53 1541.04 2178.64 1537.82C2175.75 1534.6 2173.88 1530.98 2173.01 1526.96L2192.63 1524.32C2193.23 1525.85 2194.18 1527.28 2195.47 1528.61C2196.77 1529.94 2198.48 1531 2200.6 1531.79C2202.76 1532.62 2205.38 1533.04 2208.47 1533.04C2213.09 1533.04 2216.89 1531.91 2219.88 1529.65C2222.9 1527.43 2224.41 1523.69 2224.41 1518.45V1504.45H2223.51C2222.58 1506.58 2221.19 1508.59 2219.33 1510.48C2217.47 1512.37 2215.08 1513.92 2212.16 1515.11C2209.23 1516.31 2205.75 1516.9 2201.7 1516.9C2195.95 1516.9 2190.73 1515.58 2186.01 1512.92C2181.33 1510.23 2177.59 1506.13 2174.81 1500.62C2172.05 1495.07 2170.67 1488.07 2170.67 1479.6C2170.67 1470.94 2172.08 1463.7 2174.91 1457.89C2177.73 1452.08 2181.48 1447.73 2186.16 1444.84C2190.87 1441.95 2196.04 1440.51 2201.65 1440.51C2205.93 1440.51 2209.52 1441.24 2212.41 1442.7C2215.29 1444.13 2217.62 1445.92 2219.38 1448.08C2221.17 1450.2 2222.55 1452.3 2223.51 1454.35H2224.31V1441.51H2245.37V1518.75C2245.37 1525.25 2243.78 1530.7 2240.59 1535.08C2237.41 1539.46 2232.99 1542.75 2227.35 1544.94C2221.73 1547.17 2215.28 1548.28 2207.97 1548.28ZM2208.42 1500.97C2211.84 1500.97 2214.73 1500.12 2217.09 1498.43C2219.48 1496.7 2221.3 1494.24 2222.56 1491.06C2223.86 1487.84 2224.51 1483.99 2224.51 1479.5C2224.51 1475.02 2223.88 1471.14 2222.61 1467.85C2221.35 1464.53 2219.53 1461.96 2217.14 1460.13C2214.75 1458.31 2211.84 1457.39 2208.42 1457.39C2204.94 1457.39 2202 1458.34 2199.61 1460.23C2197.22 1462.09 2195.41 1464.68 2194.18 1468C2192.95 1471.32 2192.34 1475.15 2192.34 1479.5C2192.34 1483.92 2192.95 1487.74 2194.18 1490.96C2195.44 1494.15 2197.25 1496.62 2199.61 1498.38C2202 1500.1 2204.94 1500.97 2208.42 1500.97ZM2262.26 1518V1441.51H2282.82V1454.85H2283.62C2285.01 1450.1 2287.36 1446.52 2290.64 1444.1C2293.93 1441.64 2297.71 1440.41 2302 1440.41C2303.06 1440.41 2304.2 1440.48 2305.43 1440.61C2306.66 1440.74 2307.74 1440.92 2308.67 1441.16V1459.98C2307.67 1459.68 2306.3 1459.42 2304.54 1459.19C2302.78 1458.95 2301.17 1458.84 2299.71 1458.84C2296.59 1458.84 2293.8 1459.52 2291.34 1460.88C2288.92 1462.21 2286.99 1464.07 2285.56 1466.46C2284.17 1468.85 2283.47 1471.6 2283.47 1474.72V1518H2262.26ZM2339.26 1519.44C2334.38 1519.44 2330.03 1518.6 2326.21 1516.9C2322.39 1515.18 2319.37 1512.64 2317.15 1509.28C2314.96 1505.9 2313.86 1501.68 2313.86 1496.64C2313.86 1492.39 2314.64 1488.82 2316.2 1485.93C2317.76 1483.04 2319.89 1480.72 2322.58 1478.96C2325.27 1477.2 2328.32 1475.87 2331.74 1474.97C2335.19 1474.08 2338.81 1473.44 2342.6 1473.08C2347.05 1472.61 2350.63 1472.18 2353.35 1471.78C2356.08 1471.35 2358.05 1470.72 2359.28 1469.89C2360.51 1469.06 2361.12 1467.83 2361.12 1466.21V1465.91C2361.12 1462.75 2360.13 1460.31 2358.14 1458.59C2356.18 1456.86 2353.39 1456 2349.77 1456C2345.95 1456 2342.91 1456.84 2340.65 1458.54C2338.4 1460.2 2336.9 1462.29 2336.17 1464.81L2316.55 1463.22C2317.55 1458.57 2319.51 1454.55 2322.43 1451.17C2325.35 1447.75 2329.12 1445.12 2333.73 1443.3C2338.38 1441.44 2343.76 1440.51 2349.87 1440.51C2354.12 1440.51 2358.18 1441.01 2362.07 1442C2365.99 1443 2369.46 1444.54 2372.48 1446.64C2375.53 1448.73 2377.94 1451.42 2379.7 1454.7C2381.46 1457.96 2382.34 1461.86 2382.34 1466.41V1518H2362.22V1507.39H2361.62C2360.39 1509.78 2358.75 1511.89 2356.69 1513.72C2354.63 1515.51 2352.16 1516.92 2349.27 1517.95C2346.38 1518.95 2343.05 1519.44 2339.26 1519.44ZM2345.34 1504.8C2348.46 1504.8 2351.21 1504.19 2353.6 1502.96C2355.99 1501.7 2357.87 1500.01 2359.23 1497.88C2360.59 1495.76 2361.27 1493.35 2361.27 1490.66V1482.54C2360.61 1482.97 2359.7 1483.37 2358.53 1483.74C2357.4 1484.07 2356.13 1484.38 2354.7 1484.68C2353.27 1484.95 2351.84 1485.2 2350.42 1485.43C2348.99 1485.63 2347.69 1485.81 2346.53 1485.98C2344.04 1486.34 2341.87 1486.92 2340.01 1487.72C2338.15 1488.52 2336.7 1489.6 2335.67 1490.96C2334.65 1492.29 2334.13 1493.95 2334.13 1495.94C2334.13 1498.83 2335.18 1501.03 2337.27 1502.56C2339.39 1504.06 2342.08 1504.8 2345.34 1504.8ZM2433.36 1519.49C2425.52 1519.49 2418.78 1517.83 2413.14 1514.51C2407.53 1511.16 2403.21 1506.51 2400.19 1500.57C2397.2 1494.63 2395.71 1487.79 2395.71 1480.05C2395.71 1472.22 2397.22 1465.34 2400.24 1459.43C2403.3 1453.49 2407.63 1448.86 2413.24 1445.54C2418.85 1442.19 2425.52 1440.51 2433.26 1440.51C2439.93 1440.51 2445.78 1441.72 2450.79 1444.15C2455.8 1446.57 2459.77 1449.97 2462.69 1454.35C2465.61 1458.74 2467.22 1463.88 2467.52 1469.79H2447.5C2446.94 1465.97 2445.44 1462.9 2443.02 1460.58C2440.63 1458.22 2437.49 1457.04 2433.61 1457.04C2430.32 1457.04 2427.45 1457.94 2424.99 1459.73C2422.57 1461.49 2420.68 1464.07 2419.32 1467.45C2417.95 1470.84 2417.27 1474.94 2417.27 1479.75C2417.27 1484.63 2417.94 1488.78 2419.27 1492.2C2420.63 1495.62 2422.54 1498.23 2424.99 1500.02C2427.45 1501.81 2430.32 1502.71 2433.61 1502.71C2436.03 1502.71 2438.21 1502.21 2440.13 1501.22C2442.09 1500.22 2443.7 1498.78 2444.96 1496.88C2446.26 1494.96 2447.1 1492.65 2447.5 1489.96H2467.52C2467.19 1495.81 2465.6 1500.95 2462.74 1505.4C2459.92 1509.82 2456.02 1513.27 2451.04 1515.76C2446.06 1518.25 2440.17 1519.49 2433.36 1519.49ZM2428.38 1517.6H2438.14L2437.34 1521.93C2440.76 1522.47 2443.55 1523.74 2445.71 1525.77C2447.9 1527.79 2449.01 1530.55 2449.05 1534.04C2449.08 1538.98 2446.79 1542.92 2442.17 1545.84C2437.56 1548.79 2431.09 1550.27 2422.75 1550.27L2422.55 1540.81C2426.74 1540.81 2430.01 1540.29 2432.36 1539.26C2434.75 1538.27 2436 1536.71 2436.1 1534.58C2436.16 1532.56 2435.38 1531.01 2433.76 1529.95C2432.13 1528.89 2429.59 1528.14 2426.14 1527.71L2428.38 1517.6ZM2502.92 1519.44C2498.04 1519.44 2493.69 1518.6 2489.87 1516.9C2486.05 1515.18 2483.03 1512.64 2480.81 1509.28C2478.62 1505.9 2477.52 1501.68 2477.52 1496.64C2477.52 1492.39 2478.3 1488.82 2479.86 1485.93C2481.42 1483.04 2483.55 1480.72 2486.24 1478.96C2488.92 1477.2 2491.98 1475.87 2495.4 1474.97C2498.85 1474.08 2502.47 1473.44 2506.26 1473.08C2510.7 1472.61 2514.29 1472.18 2517.01 1471.78C2519.73 1471.35 2521.71 1470.72 2522.94 1469.89C2524.17 1469.06 2524.78 1467.83 2524.78 1466.21V1465.91C2524.78 1462.75 2523.79 1460.31 2521.79 1458.59C2519.83 1456.86 2517.05 1456 2513.43 1456C2509.61 1456 2506.57 1456.84 2504.31 1458.54C2502.06 1460.2 2500.56 1462.29 2499.83 1464.81L2480.21 1463.22C2481.21 1458.57 2483.16 1454.55 2486.09 1451.17C2489.01 1447.75 2492.78 1445.12 2497.39 1443.3C2502.04 1441.44 2507.42 1440.51 2513.53 1440.51C2517.78 1440.51 2521.84 1441.01 2525.73 1442C2529.65 1443 2533.11 1444.54 2536.14 1446.64C2539.19 1448.73 2541.6 1451.42 2543.36 1454.7C2545.12 1457.96 2546 1461.86 2546 1466.41V1518H2525.88V1507.39H2525.28C2524.05 1509.78 2522.41 1511.89 2520.35 1513.72C2518.29 1515.51 2515.82 1516.92 2512.93 1517.95C2510.04 1518.95 2506.7 1519.44 2502.92 1519.44ZM2508.99 1504.8C2512.12 1504.8 2514.87 1504.19 2517.26 1502.96C2519.65 1501.7 2521.53 1500.01 2522.89 1497.88C2524.25 1495.76 2524.93 1493.35 2524.93 1490.66V1482.54C2524.27 1482.97 2523.35 1483.37 2522.19 1483.74C2521.06 1484.07 2519.78 1484.38 2518.36 1484.68C2516.93 1484.95 2515.5 1485.2 2514.07 1485.43C2512.65 1485.63 2511.35 1485.81 2510.19 1485.98C2507.7 1486.34 2505.53 1486.92 2503.67 1487.72C2501.81 1488.52 2500.36 1489.6 2499.33 1490.96C2498.3 1492.29 2497.79 1493.95 2497.79 1495.94C2497.79 1498.83 2498.84 1501.03 2500.93 1502.56C2503.05 1504.06 2505.74 1504.8 2508.99 1504.8ZM2500.08 1432.09L2488.28 1431.94C2488.28 1425.6 2489.84 1420.74 2492.96 1417.35C2496.11 1413.97 2499.95 1412.26 2504.46 1412.22C2506.79 1412.22 2508.78 1412.6 2510.44 1413.37C2512.13 1414.1 2513.64 1414.96 2514.97 1415.96C2516.33 1416.95 2517.63 1417.83 2518.86 1418.6C2520.08 1419.33 2521.41 1419.69 2522.84 1419.69C2524.76 1419.66 2526.23 1418.95 2527.22 1417.55C2528.25 1416.12 2528.77 1414.26 2528.77 1411.97L2540.37 1412.32C2540.3 1418.6 2538.71 1423.44 2535.59 1426.86C2532.47 1430.25 2528.67 1431.96 2524.18 1431.99C2521.69 1431.99 2519.6 1431.63 2517.91 1430.9C2516.25 1430.13 2514.79 1429.27 2513.53 1428.31C2512.26 1427.31 2511.04 1426.43 2509.84 1425.67C2508.65 1424.91 2507.3 1424.52 2505.81 1424.52C2504.08 1424.52 2502.69 1425.2 2501.62 1426.57C2500.59 1427.93 2500.08 1429.77 2500.08 1432.09ZM2597.02 1519.49C2589.28 1519.49 2582.59 1517.85 2576.95 1514.56C2571.34 1511.24 2567 1506.63 2563.95 1500.72C2560.9 1494.78 2559.37 1487.89 2559.37 1480.05C2559.37 1472.15 2560.9 1465.24 2563.95 1459.33C2567 1453.39 2571.34 1448.78 2576.95 1445.49C2582.59 1442.17 2589.28 1440.51 2597.02 1440.51C2604.75 1440.51 2611.43 1442.17 2617.04 1445.49C2622.68 1448.78 2627.03 1453.39 2630.09 1459.33C2633.14 1465.24 2634.67 1472.15 2634.67 1480.05C2634.67 1487.89 2633.14 1494.78 2630.09 1500.72C2627.03 1506.63 2622.68 1511.24 2617.04 1514.56C2611.43 1517.85 2604.75 1519.49 2597.02 1519.49ZM2597.12 1503.06C2600.64 1503.06 2603.57 1502.06 2605.93 1500.07C2608.29 1498.05 2610.07 1495.29 2611.26 1491.8C2612.49 1488.32 2613.1 1484.35 2613.1 1479.9C2613.1 1475.45 2612.49 1471.49 2611.26 1468C2610.07 1464.51 2608.29 1461.76 2605.93 1459.73C2603.57 1457.71 2600.64 1456.7 2597.12 1456.7C2593.56 1456.7 2590.58 1457.71 2588.15 1459.73C2585.76 1461.76 2583.95 1464.51 2582.72 1468C2581.53 1471.49 2580.93 1475.45 2580.93 1479.9C2580.93 1484.35 2581.53 1488.32 2582.72 1491.8C2583.95 1495.29 2585.76 1498.05 2588.15 1500.07C2590.58 1502.06 2593.56 1503.06 2597.12 1503.06Z" fill="#E9E9E9"/>
<path d="M140.865 1518V1416.01H209.59V1433.79H162.428V1458.09H206.054V1475.87H162.428V1500.22H209.789V1518H140.865ZM244.065 1441.51L258.108 1468.25L272.501 1441.51H294.264L272.102 1479.75L294.861 1518H273.198L258.108 1491.56L243.268 1518H221.355L244.065 1479.75L222.152 1441.51H244.065ZM347.551 1441.51V1457.44H301.485V1441.51H347.551ZM311.943 1423.18H333.158V1494.49C333.158 1496.45 333.457 1497.98 334.055 1499.08C334.652 1500.14 335.482 1500.89 336.545 1501.32C337.64 1501.75 338.902 1501.96 340.33 1501.96C341.326 1501.96 342.322 1501.88 343.318 1501.72C344.314 1501.52 345.077 1501.37 345.609 1501.27L348.945 1517.05C347.883 1517.39 346.389 1517.77 344.463 1518.2C342.538 1518.66 340.197 1518.95 337.441 1519.05C332.328 1519.25 327.846 1518.56 323.995 1517C320.177 1515.44 317.205 1513.02 315.081 1509.73C312.956 1506.45 311.91 1502.3 311.943 1497.28V1423.18ZM395.41 1519.49C387.541 1519.49 380.768 1517.9 375.091 1514.71C369.447 1511.49 365.097 1506.94 362.043 1501.07C358.988 1495.16 357.461 1488.17 357.461 1480.1C357.461 1472.23 358.988 1465.33 362.043 1459.38C365.097 1453.44 369.397 1448.81 374.941 1445.49C380.519 1442.17 387.06 1440.51 394.563 1440.51C399.609 1440.51 404.307 1441.32 408.657 1442.95C413.039 1444.54 416.857 1446.95 420.111 1450.17C423.398 1453.39 425.954 1457.44 427.78 1462.32C429.606 1467.17 430.519 1472.85 430.519 1479.35V1485.18H365.927V1472.03H410.549C410.549 1468.98 409.885 1466.27 408.557 1463.92C407.229 1461.56 405.386 1459.72 403.029 1458.39C400.705 1457.03 397.999 1456.35 394.911 1456.35C391.691 1456.35 388.836 1457.09 386.346 1458.59C383.889 1460.05 381.963 1462.02 380.569 1464.51C379.174 1466.97 378.461 1469.71 378.427 1472.73V1485.23C378.427 1489.02 379.125 1492.29 380.519 1495.04C381.947 1497.8 383.955 1499.92 386.545 1501.42C389.135 1502.91 392.206 1503.66 395.758 1503.66C398.115 1503.66 400.273 1503.33 402.232 1502.66C404.191 1502 405.868 1501 407.262 1499.67C408.657 1498.35 409.719 1496.72 410.449 1494.79L430.071 1496.09C429.075 1500.8 427.033 1504.92 423.945 1508.44C420.891 1511.92 416.94 1514.65 412.093 1516.61C407.279 1518.53 401.718 1519.49 395.41 1519.49ZM465.579 1473.78V1518H444.364V1441.51H464.583V1455H465.479C467.173 1450.55 470.011 1447.03 473.995 1444.44C477.979 1441.82 482.81 1440.51 488.487 1440.51C493.8 1440.51 498.431 1441.67 502.382 1444C506.333 1446.32 509.404 1449.64 511.595 1453.96C513.786 1458.24 514.882 1463.35 514.882 1469.29V1518H493.667V1473.08C493.7 1468.4 492.505 1464.75 490.081 1462.12C487.657 1459.47 484.321 1458.14 480.071 1458.14C477.216 1458.14 474.693 1458.75 472.501 1459.98C470.343 1461.21 468.65 1463 467.422 1465.36C466.226 1467.68 465.612 1470.49 465.579 1473.78ZM595.248 1463.32L575.826 1464.51C575.494 1462.85 574.78 1461.36 573.684 1460.03C572.589 1458.67 571.144 1457.59 569.352 1456.79C567.592 1455.96 565.484 1455.55 563.027 1455.55C559.74 1455.55 556.968 1456.25 554.71 1457.64C552.453 1459 551.324 1460.83 551.324 1463.12C551.324 1464.95 552.054 1466.49 553.515 1467.75C554.976 1469.01 557.482 1470.03 561.035 1470.79L574.88 1473.58C582.317 1475.1 587.861 1477.56 591.513 1480.95C595.165 1484.33 596.991 1488.78 596.991 1494.29C596.991 1499.31 595.514 1503.71 592.559 1507.49C589.637 1511.28 585.62 1514.23 580.507 1516.36C575.427 1518.45 569.567 1519.49 562.927 1519.49C552.801 1519.49 544.733 1517.39 538.724 1513.17C532.748 1508.92 529.245 1503.14 528.216 1495.84L549.083 1494.74C549.714 1497.83 551.241 1500.19 553.664 1501.81C556.088 1503.41 559.192 1504.21 562.977 1504.21C566.696 1504.21 569.684 1503.49 571.941 1502.06C574.232 1500.6 575.394 1498.73 575.427 1496.44C575.394 1494.51 574.581 1492.93 572.987 1491.71C571.394 1490.44 568.937 1489.48 565.617 1488.82L552.37 1486.18C544.899 1484.68 539.338 1482.09 535.686 1478.41C532.067 1474.72 530.258 1470.03 530.258 1464.31C530.258 1459.4 531.586 1455.17 534.242 1451.62C536.931 1448.06 540.7 1445.32 545.547 1443.4C550.427 1441.47 556.138 1440.51 562.678 1440.51C572.34 1440.51 579.943 1442.55 585.487 1446.64C591.065 1450.72 594.319 1456.28 595.248 1463.32ZM632.163 1519.44C627.283 1519.44 622.933 1518.6 619.115 1516.9C615.297 1515.18 612.276 1512.64 610.051 1509.28C607.86 1505.9 606.765 1501.68 606.765 1496.64C606.765 1492.39 607.545 1488.82 609.105 1485.93C610.666 1483.04 612.79 1480.72 615.48 1478.96C618.169 1477.2 621.223 1475.87 624.643 1474.97C628.096 1474.08 631.715 1473.44 635.5 1473.08C639.949 1472.61 643.534 1472.18 646.257 1471.78C648.979 1471.35 650.955 1470.72 652.183 1469.89C653.411 1469.06 654.026 1467.83 654.026 1466.21V1465.91C654.026 1462.75 653.03 1460.31 651.038 1458.59C649.079 1456.86 646.29 1456 642.671 1456C638.853 1456 635.815 1456.84 633.557 1458.54C631.3 1460.2 629.806 1462.29 629.075 1464.81L609.454 1463.22C610.45 1458.57 612.409 1454.55 615.33 1451.17C618.252 1447.75 622.02 1445.12 626.635 1443.3C631.283 1441.44 636.662 1440.51 642.771 1440.51C647.02 1440.51 651.087 1441.01 654.972 1442C658.89 1443 662.359 1444.54 665.38 1446.64C668.435 1448.73 670.842 1451.42 672.601 1454.7C674.361 1457.96 675.241 1461.86 675.241 1466.41V1518H655.121V1507.39H654.524C653.295 1509.78 651.652 1511.89 649.593 1513.72C647.535 1515.51 645.061 1516.92 642.173 1517.95C639.285 1518.95 635.948 1519.44 632.163 1519.44ZM638.239 1504.8C641.36 1504.8 644.115 1504.19 646.506 1502.96C648.896 1501.7 650.772 1500.01 652.133 1497.88C653.494 1495.76 654.175 1493.35 654.175 1490.66V1482.54C653.511 1482.97 652.598 1483.37 651.436 1483.74C650.307 1484.07 649.029 1484.38 647.601 1484.68C646.174 1484.95 644.746 1485.2 643.318 1485.43C641.891 1485.63 640.596 1485.81 639.434 1485.98C636.944 1486.34 634.769 1486.92 632.91 1487.72C631.051 1488.52 629.607 1489.6 628.577 1490.96C627.548 1492.29 627.034 1493.95 627.034 1495.94C627.034 1498.83 628.079 1501.03 630.171 1502.56C632.296 1504.06 634.985 1504.8 638.239 1504.8ZM629.324 1432.09L617.522 1431.94C617.522 1425.6 619.082 1420.74 622.203 1417.35C625.357 1413.97 629.192 1412.26 633.707 1412.22C636.031 1412.22 638.023 1412.6 639.683 1413.37C641.376 1414.1 642.887 1414.96 644.215 1415.96C645.576 1416.95 646.871 1417.83 648.099 1418.6C649.328 1419.33 650.656 1419.69 652.083 1419.69C654.009 1419.66 655.47 1418.95 656.466 1417.55C657.495 1416.12 658.01 1414.26 658.01 1411.97L669.613 1412.32C669.547 1418.6 667.953 1423.44 664.832 1426.86C661.712 1430.25 657.91 1431.96 653.428 1431.99C650.938 1431.99 648.846 1431.63 647.153 1430.9C645.493 1430.13 644.032 1429.27 642.771 1428.31C641.509 1427.31 640.281 1426.43 639.085 1425.67C637.89 1424.91 636.546 1424.52 635.052 1424.52C633.325 1424.52 631.931 1425.2 630.868 1426.57C629.839 1427.93 629.324 1429.77 629.324 1432.09ZM726.262 1519.49C718.526 1519.49 711.836 1517.85 706.192 1514.56C700.581 1511.24 696.249 1506.63 693.194 1500.72C690.14 1494.78 688.612 1487.89 688.612 1480.05C688.612 1472.15 690.14 1465.24 693.194 1459.33C696.249 1453.39 700.581 1448.78 706.192 1445.49C711.836 1442.17 718.526 1440.51 726.262 1440.51C733.998 1440.51 740.671 1442.17 746.282 1445.49C751.926 1448.78 756.275 1453.39 759.33 1459.33C762.384 1465.24 763.911 1472.15 763.911 1480.05C763.911 1487.89 762.384 1494.78 759.33 1500.72C756.275 1506.63 751.926 1511.24 746.282 1514.56C740.671 1517.85 733.998 1519.49 726.262 1519.49ZM726.361 1503.06C729.881 1503.06 732.819 1502.06 735.176 1500.07C737.533 1498.05 739.31 1495.29 740.505 1491.8C741.733 1488.32 742.348 1484.35 742.348 1479.9C742.348 1475.45 741.733 1471.49 740.505 1468C739.31 1464.51 737.533 1461.76 735.176 1459.73C732.819 1457.71 729.881 1456.7 726.361 1456.7C722.809 1456.7 719.821 1457.71 717.397 1459.73C715.007 1461.76 713.197 1464.51 711.969 1468C710.774 1471.49 710.176 1475.45 710.176 1479.9C710.176 1484.35 710.774 1488.32 711.969 1491.8C713.197 1495.29 715.007 1498.05 717.397 1500.07C719.821 1502.06 722.809 1503.06 726.361 1503.06Z" fill="#E9E9E9"/>
</svg>
