<svg width="300" height="300" viewBox="0 0 300 300" fill="none" xmlns="http://www.w3.org/2000/svg">
<rect width="300" height="300" rx="150" fill="#1C1B1F"/>
<g opacity="0.8">
<path d="M183.833 189.14L118.403 189.14C114.133 189.14 110.671 185.635 110.671 181.312L110.671 180.173C110.671 175.85 114.133 172.345 118.403 172.345L183.833 172.345C188.103 172.345 191.565 175.85 191.565 180.173L191.565 181.312C191.565 185.635 188.104 189.14 183.833 189.14Z" fill="#323435"/>
<path d="M153.936 64.9565L148.287 64.9565L148.287 36.0433L153.936 36.0433L153.936 64.9565Z" fill="#323435"/>
<path d="M64.7378 151.033C55.8185 148.887 50.3066 139.827 52.4265 130.797C54.5465 121.768 63.4955 116.188 72.4147 118.334C81.334 120.48 86.8459 129.54 84.726 138.569C82.6061 147.599 73.657 153.179 64.7378 151.033Z" fill="#616161"/>
<path d="M232.468 149.942C223.527 147.888 217.923 138.887 219.951 129.836C221.979 120.785 230.871 115.111 239.812 117.164C248.752 119.218 254.356 128.219 252.328 137.27C250.3 146.322 241.408 151.995 232.468 149.942Z" fill="#616161"/>
<path d="M154.398 58.6839C154.398 58.6839 221.891 57.8639 232.557 117.086C243.224 176.307 186.167 177.372 169.746 178.49C162.309 179.001 146.382 179.055 132.328 178.799C101.212 178.256 79.2264 172.164 71.7471 142.942C70.8564 139.516 70.2962 136.01 70.0746 132.474C68.1074 100.398 89.4934 57.1078 154.398 58.6839Z" fill="#616161"/>
<path d="M105.443 148.821L203.494 150.365C205.94 150.409 208.371 149.964 210.648 149.055C212.924 148.147 215.001 146.793 216.76 145.07C218.519 143.348 219.925 141.292 220.897 139.019C221.87 136.746 222.391 134.301 222.429 131.824C222.471 129.347 222.03 126.886 221.131 124.581C220.232 122.277 218.894 120.174 217.192 118.394C215.49 116.614 213.458 115.19 211.212 114.206C208.967 113.221 206.551 112.694 204.104 112.655L106.053 111.111C103.606 111.066 101.174 111.51 98.8974 112.418C96.6205 113.326 94.5429 114.68 92.7839 116.403C91.0248 118.125 89.6189 120.182 88.6466 122.456C87.6743 124.729 87.1547 127.175 87.1178 129.652C87.0746 132.13 87.5147 134.591 88.4128 136.897C89.3109 139.202 90.6494 141.305 92.3516 143.085C94.0538 144.866 96.0863 146.289 98.3327 147.273C100.579 148.258 102.995 148.784 105.443 148.821Z" fill="#323435"/>
<path d="M183.118 129.769C183.346 130.943 183.913 132.022 184.747 132.87C185.58 133.717 186.644 134.296 187.802 134.532C188.96 134.768 190.162 134.651 191.255 134.196C192.347 133.74 193.282 132.967 193.941 131.974C194.6 130.981 194.953 129.813 194.956 128.617C194.959 127.42 194.611 126.25 193.957 125.254C193.304 124.258 192.372 123.48 191.282 123.019C190.191 122.559 188.991 122.436 187.831 122.666C187.061 122.819 186.328 123.124 185.674 123.564C185.02 124.004 184.459 124.569 184.021 125.229C183.583 125.889 183.278 126.629 183.123 127.408C182.969 128.187 182.967 128.989 183.118 129.769Z" fill="black"/>
<path d="M114.646 128.661C114.872 129.836 115.437 130.916 116.27 131.766C117.103 132.615 118.166 133.195 119.324 133.433C120.483 133.67 121.685 133.555 122.779 133.1C123.872 132.646 124.808 131.873 125.468 130.88C126.128 129.887 126.482 128.719 126.485 127.522C126.489 126.325 126.141 125.154 125.487 124.157C124.833 123.161 123.902 122.383 122.811 121.922C121.72 121.461 120.518 121.338 119.358 121.569C117.805 121.878 116.436 122.798 115.553 124.128C114.669 125.458 114.343 127.088 114.646 128.661Z" fill="black"/>
<path d="M144.523 42.1218C140.887 38.4412 140.887 32.4738 144.523 28.7932C148.158 25.1126 154.053 25.1126 157.689 28.7932C161.324 32.4738 161.324 38.4412 157.689 42.1218C154.053 45.8024 148.158 45.8024 144.523 42.1218Z" fill="#616161"/>
<path d="M165.982 126.979C165.54 127.032 165.761 129.109 164.456 131.952C163.717 133.584 162.641 135.037 161.3 136.212C159.729 137.612 157.773 138.492 155.694 138.736C153.603 138.873 151.521 138.368 149.719 137.288C148.193 136.39 146.874 135.174 145.847 133.72C144.059 131.196 143.901 129.077 143.46 129.109C143.281 129.109 143.102 129.641 143.102 130.642C143.142 132.069 143.502 133.467 144.154 134.732C145.134 136.643 146.583 138.268 148.362 139.45C150.561 141.018 153.239 141.744 155.918 141.496C158.597 141.248 161.102 140.043 162.984 138.097C164.52 136.61 165.65 134.746 166.266 132.687C166.704 131.313 166.819 129.854 166.602 128.427C166.423 127.437 166.15 126.947 165.982 126.979Z" fill="black"/>
<path d="M76.1137 154.572C76.2189 154.572 75.0092 152.655 73.8415 149.3C72.3894 144.907 71.4709 140.351 71.1065 135.733C70.6852 131.131 70.5798 126.505 70.7909 121.888C70.8645 120.11 70.9487 118.694 71.0329 117.629C71.1039 117.114 71.1215 116.593 71.0854 116.074C70.9507 116.576 70.8626 117.089 70.8225 117.607C70.6752 118.598 70.5279 120.035 70.4017 121.867C70.0717 126.521 70.1245 131.194 70.5595 135.839C70.9296 140.501 71.9095 145.092 73.4734 149.492C73.9685 150.819 74.5664 152.104 75.2616 153.336C75.5102 153.772 75.7953 154.185 76.1137 154.572Z" fill="#323435"/>
<path d="M232.433 115.105C232.493 115.622 232.602 116.132 232.759 116.628C232.896 117.107 233.043 117.693 233.18 118.396C233.317 119.099 233.527 119.865 233.653 120.749C234.022 122.802 234.268 124.875 234.39 126.958C234.531 129.506 234.496 132.061 234.284 134.604C234.049 137.143 233.642 139.662 233.064 142.144C232.581 144.174 231.977 146.173 231.255 148.129C230.971 148.97 230.645 149.705 230.382 150.365C230.119 151.026 229.866 151.579 229.656 152.027C229.416 152.486 229.219 152.968 229.067 153.464C229.366 153.042 229.627 152.593 229.845 152.122C230.143 151.59 230.413 151.043 230.655 150.482C230.95 149.843 231.307 149.109 231.613 148.267C232.394 146.316 233.04 144.313 233.548 142.272C234.164 139.766 234.593 137.217 234.831 134.647C235.046 132.078 235.067 129.497 234.895 126.926C234.748 124.825 234.46 122.736 234.032 120.675C233.874 119.791 233.653 119.013 233.474 118.321C233.296 117.629 233.127 117.043 232.97 116.564C232.83 116.064 232.651 115.576 232.433 115.105Z" fill="#323435"/>
<path d="M162.953 63.1143C163.033 63.122 163.114 63.122 163.195 63.1143L163.899 63.1888C164.53 63.2527 165.456 63.274 166.645 63.4125C169.999 63.742 173.327 64.3006 176.607 65.0844C193.57 69.0173 208.532 79.0824 218.684 93.3906C223.589 100.266 227.303 107.937 229.667 116.074C230.035 117.224 230.235 118.14 230.414 118.747L230.613 119.45C230.632 119.531 230.661 119.61 230.698 119.684C230.711 119.603 230.711 119.52 230.698 119.439C230.698 119.248 230.613 119.013 230.55 118.726C230.403 118.108 230.245 117.182 229.909 116.01C229.031 112.702 227.905 109.465 226.542 106.33C222.046 95.9092 215.201 86.6998 206.556 79.4399C197.873 72.2346 187.646 67.187 176.691 64.701C173.392 63.9422 170.041 63.4402 166.666 63.1994C165.467 63.093 164.562 63.1036 163.91 63.0717L163.195 63.0717C163.026 63.093 162.953 63.1036 162.953 63.1143Z" fill="black"/>
<path d="M228.982 145.094C229.404 144.434 229.73 143.717 229.95 142.964C231.198 139.405 231.779 135.642 231.665 131.867C231.695 131.083 231.602 130.3 231.391 129.545C231.223 129.545 231.454 133.102 230.781 137.405C230.108 141.707 228.824 145.03 228.982 145.094Z" fill="black"/>
<path d="M246.686 139.588C246.686 139.588 246.928 139.417 247.254 139.013C247.719 138.439 248.118 137.814 248.443 137.149C249.566 134.948 249.996 132.451 249.675 129.994C249.353 127.538 248.295 125.24 246.644 123.411C246.161 122.851 245.613 122.351 245.014 121.92C244.808 121.745 244.573 121.608 244.319 121.516C244.256 121.601 245.203 122.251 246.35 123.646C247.854 125.47 248.817 127.689 249.126 130.046C249.436 132.402 249.078 134.799 248.096 136.957C247.359 138.651 246.613 139.524 246.686 139.588Z" fill="black"/>
<path d="M150.507 28.8868C151.328 28.7953 152.155 28.7775 152.979 28.8335C153.96 28.9207 154.909 29.2342 155.752 29.75C156.594 30.2658 157.309 30.9702 157.842 31.8092C158.374 32.6482 158.709 33.5995 158.822 34.59C158.934 35.5805 158.821 36.584 158.491 37.5235C158.207 38.3026 157.855 39.0546 157.439 39.7705C157.439 39.7705 157.65 39.6427 157.944 39.3019C158.349 38.8089 158.669 38.251 158.891 37.6513C159.292 36.6568 159.451 35.5791 159.354 34.5094C159.257 33.4397 158.907 32.4094 158.333 31.5057C157.759 30.602 156.979 29.8516 156.058 29.3179C155.137 28.7841 154.103 28.4829 153.042 28.4395C152.413 28.3953 151.78 28.4564 151.17 28.6205C150.697 28.6951 150.507 28.8548 150.507 28.8868Z" fill="black"/>
<path d="M58.8219 126.67C58.9376 126.798 60.5681 125.211 63.0296 124.018C65.4912 122.826 67.7318 122.474 67.7108 122.304C65.9959 122.26 64.3005 122.679 62.7982 123.518C61.2169 124.187 59.8432 125.276 58.8219 126.67Z" fill="black"/>
<path d="M121.641 107.671C121.641 107.821 134.559 107.948 150.485 107.948C166.411 107.948 179.34 107.821 179.34 107.671C179.34 107.522 166.422 107.395 150.485 107.395C134.548 107.395 121.641 107.501 121.641 107.671Z" fill="black"/>
<path d="M170.873 174.263C171.03 174.308 171.193 174.333 171.356 174.337L172.766 174.465C173.376 174.518 174.123 174.561 174.996 174.582C175.869 174.603 176.858 174.646 177.952 174.582C180.151 174.582 182.759 174.422 185.652 174.113C188.783 173.745 191.891 173.201 194.962 172.484C198.026 171.74 201.046 170.823 204.009 169.736C206.422 168.842 208.789 167.822 211.099 166.68C212.151 166.212 212.961 165.722 213.729 165.306C214.497 164.891 215.149 164.518 215.675 164.241L216.884 163.496C217.028 163.415 217.162 163.319 217.284 163.208C217.284 163.208 217.116 163.208 216.832 163.4L215.57 164.05C215.033 164.348 214.37 164.699 213.592 165.115C212.813 165.53 211.93 165.956 210.93 166.403C208.953 167.34 206.544 168.341 203.83 169.332C197.931 171.473 191.812 172.93 185.589 173.677C182.728 174.018 180.13 174.209 177.952 174.263C176.9 174.326 175.848 174.263 174.996 174.263C174.144 174.263 173.387 174.263 172.777 174.263L171.367 174.263C171.203 174.235 171.036 174.235 170.873 174.263Z" fill="black"/>
</g>
<path d="M55.2654 242.305V210.948H67.6367C70.0048 210.948 72.0258 211.372 73.6998 212.219C75.384 213.056 76.6651 214.245 77.5429 215.787C78.4309 217.318 78.875 219.119 78.875 221.191C78.875 223.274 78.4258 225.065 77.5276 226.565C76.6293 228.056 75.3279 229.199 73.6233 229.995C71.9289 230.791 69.8772 231.189 67.4683 231.189H59.185V225.861H66.3965C67.6622 225.861 68.7136 225.688 69.5506 225.341C70.3876 224.994 71.0102 224.473 71.4185 223.779C71.837 223.085 72.0462 222.222 72.0462 221.191C72.0462 220.15 71.837 219.272 71.4185 218.558C71.0102 217.843 70.3825 217.302 69.5352 216.935C68.6982 216.557 67.6418 216.368 66.3659 216.368H61.8951V242.305H55.2654ZM72.1994 228.035L79.9927 242.305H72.674L65.0491 228.035H72.1994ZM93.6845 242.765C91.3062 242.765 89.2494 242.259 87.5142 241.249C85.7891 240.228 84.4571 238.809 83.518 236.992C82.5789 235.165 82.1094 233.047 82.1094 230.638C82.1094 228.209 82.5789 226.086 83.518 224.269C84.4571 222.442 85.7891 221.023 87.5142 220.012C89.2494 218.992 91.3062 218.481 93.6845 218.481C96.0628 218.481 98.1145 218.992 99.8395 220.012C101.575 221.023 102.912 222.442 103.851 224.269C104.79 226.086 105.26 228.209 105.26 230.638C105.26 233.047 104.79 235.165 103.851 236.992C102.912 238.809 101.575 240.228 99.8395 241.249C98.1145 242.259 96.0628 242.765 93.6845 242.765ZM93.7151 237.712C94.7971 237.712 95.7005 237.406 96.4252 236.793C97.1499 236.171 97.696 235.323 98.0635 234.252C98.4411 233.18 98.63 231.96 98.63 230.592C98.63 229.224 98.4411 228.005 98.0635 226.933C97.696 225.861 97.1499 225.014 96.4252 224.391C95.7005 223.769 94.7971 223.457 93.7151 223.457C92.623 223.457 91.7043 223.769 90.9592 224.391C90.2242 225.014 89.6679 225.861 89.2903 226.933C88.9228 228.005 88.7391 229.224 88.7391 230.592C88.7391 231.96 88.9228 233.18 89.2903 234.252C89.6679 235.323 90.2242 236.171 90.9592 236.793C91.7043 237.406 92.623 237.712 93.7151 237.712ZM109.623 242.305V210.948H116.146V222.738H116.345C116.631 222.105 117.044 221.462 117.585 220.809C118.136 220.145 118.851 219.594 119.729 219.155C120.617 218.706 121.719 218.481 123.036 218.481C124.751 218.481 126.333 218.93 127.782 219.829C129.232 220.717 130.39 222.059 131.258 223.855C132.125 225.642 132.559 227.882 132.559 230.577C132.559 233.2 132.136 235.415 131.288 237.222C130.451 239.018 129.308 240.381 127.859 241.31C126.419 242.229 124.807 242.688 123.02 242.688C121.755 242.688 120.678 242.479 119.79 242.06C118.912 241.642 118.192 241.116 117.631 240.483C117.07 239.84 116.641 239.192 116.345 238.539H116.054V242.305H109.623ZM116.008 230.546C116.008 231.945 116.202 233.165 116.59 234.206C116.978 235.247 117.539 236.058 118.274 236.64C119.009 237.212 119.902 237.498 120.953 237.498C122.015 237.498 122.913 237.207 123.648 236.625C124.383 236.033 124.939 235.216 125.317 234.175C125.705 233.124 125.899 231.914 125.899 230.546C125.899 229.189 125.71 227.994 125.332 226.964C124.955 225.933 124.398 225.126 123.663 224.544C122.929 223.963 122.025 223.672 120.953 223.672C119.892 223.672 118.994 223.952 118.259 224.514C117.534 225.075 116.978 225.871 116.59 226.902C116.202 227.933 116.008 229.148 116.008 230.546ZM147.537 242.765C145.159 242.765 143.102 242.259 141.367 241.249C139.642 240.228 138.31 238.809 137.371 236.992C136.432 235.165 135.962 233.047 135.962 230.638C135.962 228.209 136.432 226.086 137.371 224.269C138.31 222.442 139.642 221.023 141.367 220.012C143.102 218.992 145.159 218.481 147.537 218.481C149.915 218.481 151.967 218.992 153.692 220.012C155.427 221.023 156.765 222.442 157.704 224.269C158.643 226.086 159.112 228.209 159.112 230.638C159.112 233.047 158.643 235.165 157.704 236.992C156.765 238.809 155.427 240.228 153.692 241.249C151.967 242.259 149.915 242.765 147.537 242.765ZM147.568 237.712C148.65 237.712 149.553 237.406 150.278 236.793C151.003 236.171 151.549 235.323 151.916 234.252C152.294 233.18 152.483 231.96 152.483 230.592C152.483 229.224 152.294 228.005 151.916 226.933C151.549 225.861 151.003 225.014 150.278 224.391C149.553 223.769 148.65 223.457 147.568 223.457C146.476 223.457 145.557 223.769 144.812 224.391C144.077 225.014 143.521 225.861 143.143 226.933C142.775 228.005 142.592 229.224 142.592 230.592C142.592 231.96 142.775 233.18 143.143 234.252C143.521 235.323 144.077 236.171 144.812 236.793C145.557 237.406 146.476 237.712 147.568 237.712ZM150.615 215.97L147.537 212.234L144.46 215.97H138.902V215.756L145.103 209.019H149.956L156.173 215.756V215.97H150.615Z" fill="#5B5D5D"/>
<g clip-path="url(#clip0_700_1108)">
<path d="M217.232 203.275C218.378 201.973 220.088 201.224 221.913 201.224H235.062C236.053 202.865 237.956 203.971 240.151 203.971C243.375 203.971 245.977 201.581 245.977 198.62C245.977 195.659 243.375 193.269 240.151 193.269C238.014 193.269 236.169 194.322 235.14 195.891H222.651C218.611 195.891 214.805 197.568 212.28 200.439L206.978 206.485L210.707 210.73L217.232 203.275Z" fill="#5B5D5D"/>
<path d="M240.132 233.31C237.957 233.31 236.053 234.416 235.043 236.056H221.894C220.069 236.056 218.36 235.307 217.214 234.005L210.649 226.532L206.92 230.777L212.222 236.823C214.747 239.713 218.573 241.371 222.594 241.371H235.082C236.092 242.941 237.957 243.993 240.093 243.993C243.317 243.993 245.92 241.603 245.92 238.643C245.92 235.682 243.337 233.31 240.132 233.31Z" fill="#5B5D5D"/>
<path d="M208.105 213.53L191.732 194.928H171.3C170.251 193.947 168.794 193.358 167.163 193.358C163.939 193.358 161.336 195.748 161.336 198.709C161.336 201.67 163.939 204.06 167.163 204.06C168.833 204.06 170.348 203.4 171.416 202.365H187.847L191.712 206.771V206.878L201.229 217.704C201.151 218.06 201.113 218.417 201.113 218.774C201.113 219.148 201.151 219.505 201.229 219.844L197.481 224.071H197.461L195.111 226.746L191.673 230.616V230.652L187.789 235.075H171.416C171.358 235.004 171.28 234.95 171.222 234.897V222.662H171.183C172.309 221.681 173.009 220.308 173.009 218.792C173.009 215.831 170.406 213.441 167.182 213.441C163.958 213.441 161.355 215.831 161.355 218.792C161.355 220.325 162.055 221.699 163.181 222.662H163.142V234.897C162.055 235.878 161.355 237.233 161.355 238.732C161.355 241.692 163.958 244.082 167.182 244.082C168.794 244.082 170.251 243.476 171.319 242.495H171.727H191.654L208.046 224.017C210.727 223.536 212.766 221.378 212.766 218.774C212.766 216.188 210.765 214.03 208.105 213.53ZM167.182 200.974C165.822 200.974 164.715 199.957 164.715 198.709C164.715 197.461 165.822 196.444 167.182 196.444C168.542 196.444 169.649 197.443 169.649 198.709C169.649 199.975 168.542 200.974 167.182 200.974ZM167.182 216.42C168.542 216.42 169.649 217.436 169.649 218.685C169.649 219.933 168.542 220.95 167.182 220.95C165.822 220.95 164.715 219.933 164.715 218.685C164.696 217.436 165.803 216.42 167.182 216.42ZM167.182 240.925C165.822 240.925 164.715 239.909 164.715 238.66C164.715 237.412 165.822 236.395 167.182 236.395C168.542 236.395 169.649 237.412 169.649 238.66C169.649 239.909 168.542 240.925 167.182 240.925ZM206.939 221.039C205.58 221.039 204.473 220.022 204.473 218.774C204.473 217.525 205.58 216.509 206.939 216.509C208.299 216.509 209.406 217.525 209.406 218.774C209.406 220.022 208.299 221.039 206.939 221.039Z" fill="#076CA1"/>
</g>
<defs>
<clipPath id="clip0_700_1108">
<rect width="87.7028" height="51.9057" fill="white" transform="translate(159.757 192.991)"/>
</clipPath>
</defs>
</svg>
