<svg width="634" height="578" viewBox="0 0 634 578" fill="none" xmlns="http://www.w3.org/2000/svg">
<g opacity="0.8">
<path d="M392.83 362.038L250.992 362.038C241.736 362.038 234.232 354.442 234.232 345.071L234.232 342.6C234.232 333.229 241.736 325.633 250.992 325.633L392.83 325.633C402.087 325.633 409.591 333.229 409.591 342.6L409.591 345.071C409.591 354.442 402.087 362.038 392.83 362.038Z" fill="#323435"/>
<path d="M328.022 92.8398L315.777 92.8398L315.777 30.1631L328.022 30.1631L328.022 92.8398Z" fill="#323435"/>
<path d="M134.662 279.432C115.327 274.78 103.378 255.141 107.974 235.567C112.569 215.993 131.969 203.897 151.303 208.549C170.638 213.201 182.587 232.841 177.991 252.414C173.396 271.988 153.996 284.084 134.662 279.432Z" fill="#616161"/>
<path d="M498.259 277.066C478.878 272.616 466.73 253.102 471.126 233.482C475.522 213.861 494.798 201.563 514.179 206.014C533.56 210.464 545.707 229.978 541.311 249.598C536.915 269.219 517.64 281.517 498.259 277.066Z" fill="#616161"/>
<path d="M329.026 79.2426C329.026 79.2426 475.333 77.465 498.455 205.843C521.578 334.22 397.892 336.529 362.296 338.953C346.174 340.061 311.649 340.177 281.184 339.622C213.731 338.445 166.072 325.24 149.859 261.894C147.928 254.466 146.714 246.866 146.233 239.201C141.969 169.668 188.328 75.8259 329.026 79.2426Z" fill="#616161"/>
<path d="M222.898 274.637L435.449 277.985C440.753 278.079 446.022 277.114 450.957 275.145C455.891 273.175 460.394 270.24 464.206 266.507C468.019 262.774 471.067 258.316 473.175 253.389C475.284 248.462 476.412 243.162 476.496 237.793C476.586 232.423 475.63 227.088 473.682 222.092C471.734 217.096 468.833 212.539 465.143 208.679C461.454 204.82 457.049 201.735 452.181 199.6C447.313 197.465 442.076 196.323 436.772 196.239L224.221 192.892C218.917 192.794 213.646 193.757 208.71 195.725C203.774 197.694 199.27 200.629 195.457 204.363C191.644 208.097 188.596 212.555 186.489 217.484C184.381 222.412 183.255 227.714 183.174 233.084C183.081 238.454 184.035 243.791 185.982 248.788C187.929 253.785 190.83 258.344 194.52 262.204C198.21 266.064 202.616 269.149 207.486 271.283C212.355 273.416 217.593 274.556 222.898 274.637Z" fill="#323435"/>
<path d="M391.279 233.337C391.774 235.882 393.002 238.221 394.809 240.058C396.616 241.896 398.921 243.15 401.432 243.662C403.943 244.173 406.548 243.92 408.917 242.933C411.285 241.946 413.312 240.271 414.74 238.118C416.168 235.965 416.934 233.432 416.94 230.839C416.947 228.246 416.193 225.709 414.776 223.55C413.358 221.39 411.34 219.704 408.976 218.706C406.612 217.707 404.009 217.44 401.495 217.94C399.825 218.271 398.237 218.932 396.819 219.886C395.402 220.839 394.185 222.066 393.236 223.496C392.287 224.926 391.626 226.531 391.29 228.22C390.955 229.908 390.951 231.647 391.279 233.337Z" fill="black"/>
<path d="M242.852 230.937C243.342 233.483 244.567 235.825 246.372 237.666C248.178 239.507 250.482 240.765 252.994 241.28C255.505 241.795 258.111 241.544 260.482 240.559C262.853 239.574 264.882 237.899 266.312 235.747C267.742 233.594 268.51 231.061 268.517 228.466C268.524 225.872 267.772 223.334 266.354 221.173C264.936 219.012 262.917 217.325 260.552 216.327C258.187 215.328 255.582 215.062 253.067 215.562C249.7 216.232 246.733 218.227 244.818 221.109C242.902 223.992 242.195 227.527 242.852 230.937Z" fill="black"/>
<path d="M307.616 43.3398C299.735 35.3612 299.735 22.4252 307.616 14.4466C315.497 6.46798 328.275 6.46799 336.157 14.4466C344.038 22.4252 344.038 35.3611 336.157 43.3398C328.275 51.3184 315.497 51.3184 307.616 43.3398Z" fill="#616161"/>
<path d="M354.133 227.289C353.175 227.404 353.654 231.906 350.826 238.07C349.224 241.608 346.891 244.757 343.985 247.304C340.579 250.338 336.338 252.247 331.831 252.775C327.3 253.071 322.786 251.977 318.878 249.636C315.572 247.689 312.711 245.053 310.487 241.902C306.61 236.431 306.268 231.837 305.31 231.906C304.923 231.906 304.535 233.06 304.535 235.23C304.622 238.322 305.402 241.353 306.815 244.095C308.94 248.239 312.081 251.761 315.937 254.322C320.704 257.723 326.51 259.295 332.318 258.758C338.125 258.221 343.554 255.609 347.634 251.39C350.963 248.167 353.414 244.127 354.748 239.663C355.699 236.684 355.949 233.522 355.478 230.429C355.09 228.282 354.498 227.22 354.133 227.289Z" fill="black"/>
<path d="M159.322 287.103C159.55 287.103 156.928 282.948 154.397 275.676C151.249 266.152 149.258 256.276 148.468 246.265C147.554 236.29 147.326 226.262 147.784 216.254C147.943 212.399 148.126 209.329 148.308 207.02C148.462 205.904 148.5 204.774 148.422 203.65C148.13 204.737 147.939 205.85 147.852 206.974C147.533 209.121 147.213 212.237 146.94 216.208C146.225 226.296 146.339 236.427 147.282 246.496C148.084 256.601 150.208 266.553 153.598 276.092C154.672 278.969 155.968 281.755 157.475 284.425C158.014 285.37 158.632 286.266 159.322 287.103Z" fill="#323435"/>
<path d="M498.182 201.549C498.311 202.67 498.548 203.776 498.889 204.85C499.185 205.889 499.504 207.159 499.801 208.682C500.097 210.206 500.553 211.868 500.827 213.784C501.627 218.234 502.16 222.728 502.423 227.243C502.73 232.767 502.654 238.305 502.195 243.818C501.686 249.322 500.802 254.783 499.55 260.163C498.503 264.564 497.193 268.896 495.628 273.137C495.012 274.96 494.305 276.553 493.735 277.985C493.165 279.416 492.618 280.616 492.162 281.586C491.642 282.583 491.214 283.626 490.885 284.702C491.534 283.787 492.099 282.813 492.572 281.794C493.217 280.64 493.803 279.453 494.328 278.239C494.967 276.853 495.742 275.261 496.403 273.437C498.096 269.208 499.498 264.865 500.599 260.44C501.934 255.008 502.863 249.483 503.381 243.911C503.846 238.343 503.892 232.748 503.518 227.174C503.2 222.619 502.575 218.091 501.648 213.623C501.306 211.707 500.827 210.021 500.439 208.521C500.052 207.02 499.687 205.75 499.345 204.712C499.043 203.627 498.654 202.57 498.182 201.549Z" fill="#323435"/>
<path d="M347.565 88.8462C347.74 88.8629 347.915 88.8629 348.09 88.8462L349.618 89.0077C350.986 89.1462 352.993 89.1924 355.569 89.4925C362.84 90.2069 370.055 91.4178 377.164 93.1169C413.936 101.643 446.37 123.461 468.378 154.478C479.011 169.383 487.062 186.011 492.185 203.65C492.983 206.143 493.416 208.128 493.804 209.444L494.237 210.968C494.278 211.144 494.339 211.314 494.42 211.476C494.45 211.3 494.45 211.12 494.42 210.945C494.42 210.529 494.237 210.021 494.1 209.398C493.781 208.059 493.439 206.051 492.709 203.511C490.806 196.339 488.367 189.324 485.412 182.527C475.665 159.937 460.827 139.974 442.086 124.236C423.265 108.617 401.094 97.6747 377.347 92.2859C370.195 90.6409 362.93 89.5527 355.615 89.0308C353.015 88.8 351.054 88.8231 349.64 88.7538L348.09 88.7538C347.725 88.8 347.565 88.8231 347.565 88.8462Z" fill="black"/>
<path d="M490.702 266.557C491.616 265.128 492.323 263.573 492.8 261.94C495.505 254.225 496.766 246.068 496.517 237.885C496.582 236.187 496.382 234.488 495.924 232.853C495.559 232.853 496.061 240.563 494.602 249.89C493.142 259.216 490.36 266.419 490.702 266.557Z" fill="black"/>
<path d="M529.08 254.622C529.08 254.622 529.605 254.253 530.312 253.376C531.319 252.132 532.184 250.777 532.888 249.336C535.324 244.563 536.255 239.15 535.558 233.826C534.861 228.501 532.568 223.521 528.989 219.555C527.941 218.341 526.754 217.256 525.455 216.324C525.008 215.943 524.499 215.646 523.949 215.446C523.813 215.631 525.865 217.039 528.351 220.063C531.613 224.018 533.7 228.829 534.37 233.937C535.04 239.045 534.265 244.24 532.136 248.92C530.54 252.591 528.921 254.484 529.08 254.622Z" fill="black"/>
<path d="M320.588 14.6497C322.368 14.4514 324.161 14.4128 325.947 14.5343C328.074 14.7232 330.13 15.4028 331.957 16.521C333.784 17.6392 335.334 19.1662 336.487 20.9849C337.641 22.8036 338.368 24.8657 338.612 27.0129C338.856 29.1601 338.611 31.3354 337.896 33.372C337.28 35.061 336.517 36.6911 335.616 38.243C335.616 38.243 336.072 37.9659 336.71 37.2272C337.586 36.1585 338.28 34.9491 338.762 33.649C339.632 31.4933 339.977 29.1571 339.766 26.8382C339.555 24.5193 338.796 22.2859 337.552 20.3269C336.308 18.368 334.617 16.7412 332.621 15.5843C330.624 14.4273 328.382 13.7741 326.084 13.6801C324.719 13.5842 323.347 13.7168 322.025 14.0726C320.999 14.2342 320.588 14.5805 320.588 14.6497Z" fill="black"/>
<path d="M121.833 226.62C122.084 226.897 125.619 223.457 130.955 220.871C136.291 218.286 141.148 217.524 141.102 217.155C137.385 217.061 133.71 217.969 130.453 219.786C127.025 221.238 124.047 223.599 121.833 226.62Z" fill="black"/>
<path d="M258.016 185.435C258.016 185.759 286.018 186.036 320.543 186.036C355.067 186.036 383.093 185.759 383.093 185.435C383.093 185.112 355.09 184.835 320.543 184.835C285.996 184.835 258.016 185.066 258.016 185.435Z" fill="black"/>
<path d="M364.736 329.788C365.077 329.886 365.43 329.94 365.785 329.95L368.84 330.227C370.163 330.342 371.782 330.435 373.675 330.481C375.567 330.527 377.711 330.619 380.083 330.481C384.848 330.481 390.504 330.134 396.775 329.465C403.561 328.666 410.298 327.486 416.956 325.933C423.598 324.32 430.145 322.332 436.567 319.977C441.799 318.037 446.929 315.826 451.936 313.351C454.217 312.336 455.972 311.274 457.637 310.373C459.302 309.473 460.716 308.665 461.856 308.065L464.478 306.449C464.789 306.274 465.08 306.065 465.345 305.826C465.345 305.826 464.98 305.826 464.364 306.241L461.628 307.649C460.465 308.296 459.028 309.058 457.341 309.958C455.653 310.858 453.738 311.782 451.571 312.751C447.284 314.783 442.062 316.953 436.179 319.1C423.392 323.741 410.127 326.9 396.638 328.518C390.435 329.257 384.803 329.673 380.083 329.788C377.802 329.927 375.522 329.788 373.675 329.788C371.828 329.788 370.186 329.788 368.863 329.788L365.808 329.788C365.453 329.728 365.091 329.728 364.736 329.788Z" fill="black"/>
</g>
<path d="M8.86456 543.571V441.578H49.1037C56.8062 441.578 63.38 442.956 68.8249 445.712C74.303 448.434 78.4696 452.302 81.3249 457.315C84.2134 462.296 85.6576 468.155 85.6576 474.895C85.6576 481.668 84.1968 487.495 81.2751 492.375C78.3534 497.223 74.1204 500.941 68.5759 503.531C63.0646 506.12 56.3912 507.415 48.5559 507.415H21.6136V490.084H45.0698C49.1867 490.084 52.6064 489.52 55.3288 488.391C58.0513 487.262 60.0765 485.569 61.4045 483.312C62.7658 481.054 63.4464 478.248 63.4464 474.895C63.4464 471.509 62.7658 468.653 61.4045 466.329C60.0765 464.005 58.0347 462.246 55.279 461.051C52.5566 459.822 49.1203 459.208 44.9702 459.208H30.4284V543.571H8.86456ZM63.9444 497.156L89.293 543.571H65.4882L40.6873 497.156H63.9444ZM133.828 545.065C126.092 545.065 119.402 543.421 113.758 540.134C108.147 536.814 103.814 532.199 100.76 526.29C97.7052 520.347 96.178 513.458 96.178 505.622C96.178 497.721 97.7052 490.815 100.76 484.905C103.814 478.962 108.147 474.347 113.758 471.061C119.402 467.74 126.092 466.08 133.828 466.08C141.563 466.08 148.237 467.74 153.847 471.061C159.492 474.347 163.841 478.962 166.895 484.905C169.95 490.815 171.477 497.721 171.477 505.622C171.477 513.458 169.95 520.347 166.895 526.29C163.841 532.199 159.492 536.814 153.847 540.134C148.237 543.421 141.563 545.065 133.828 545.065ZM133.927 528.63C137.446 528.63 140.385 527.634 142.742 525.642C145.099 523.617 146.875 520.861 148.071 517.375C149.299 513.889 149.913 509.922 149.913 505.473C149.913 501.024 149.299 497.057 148.071 493.571C146.875 490.084 145.099 487.329 142.742 485.304C140.385 483.278 137.446 482.266 133.927 482.266C130.375 482.266 127.387 483.278 124.963 485.304C122.573 487.329 120.763 490.084 119.535 493.571C118.339 497.057 117.742 501.024 117.742 505.473C117.742 509.922 118.339 513.889 119.535 517.375C120.763 520.861 122.573 523.617 124.963 525.642C127.387 527.634 130.375 528.63 133.927 528.63ZM185.67 543.571V441.578H206.885V479.925H207.533C208.462 477.867 209.807 475.775 211.567 473.65C213.36 471.492 215.684 469.699 218.539 468.272C221.427 466.811 225.013 466.08 229.296 466.08C234.874 466.08 240.02 467.541 244.734 470.463C249.449 473.351 253.217 477.717 256.039 483.561C258.861 489.371 260.272 496.658 260.272 505.423C260.272 513.956 258.894 521.16 256.139 527.037C253.416 532.88 249.698 537.312 244.983 540.334C240.302 543.322 235.056 544.816 229.246 544.816C225.129 544.816 221.627 544.135 218.738 542.774C215.883 541.413 213.542 539.703 211.716 537.644C209.89 535.553 208.496 533.444 207.533 531.32H206.587V543.571H185.67ZM206.437 505.324C206.437 509.872 207.068 513.84 208.33 517.226C209.591 520.612 211.417 523.252 213.808 525.144C216.198 527.004 219.103 527.933 222.523 527.933C225.976 527.933 228.897 526.987 231.288 525.095C233.678 523.169 235.488 520.513 236.716 517.126C237.978 513.707 238.609 509.772 238.609 505.324C238.609 500.908 237.994 497.023 236.766 493.67C235.538 490.317 233.728 487.694 231.338 485.802C228.947 483.909 226.009 482.963 222.523 482.963C219.07 482.963 216.148 483.876 213.758 485.702C211.401 487.528 209.591 490.118 208.33 493.471C207.068 496.824 206.437 500.775 206.437 505.324ZM308.99 545.065C301.254 545.065 294.564 543.421 288.92 540.134C283.309 536.814 278.976 532.199 275.922 526.29C272.868 520.347 271.34 513.458 271.34 505.622C271.34 497.721 272.868 490.815 275.922 484.905C278.976 478.962 283.309 474.347 288.92 471.061C294.564 467.74 301.254 466.08 308.99 466.08C316.726 466.08 323.399 467.74 329.01 471.061C334.654 474.347 339.003 478.962 342.058 484.905C345.112 490.815 346.639 497.721 346.639 505.622C346.639 513.458 345.112 520.347 342.058 526.29C339.003 532.199 334.654 536.814 329.01 540.134C323.399 543.421 316.726 545.065 308.99 545.065ZM309.089 528.63C312.609 528.63 315.547 527.634 317.904 525.642C320.261 523.617 322.038 520.861 323.233 517.375C324.461 513.889 325.075 509.922 325.075 505.473C325.075 501.024 324.461 497.057 323.233 493.571C322.038 490.084 320.261 487.329 317.904 485.304C315.547 483.278 312.609 482.266 309.089 482.266C305.537 482.266 302.549 483.278 300.125 485.304C297.735 487.329 295.925 490.084 294.697 493.571C293.502 497.057 292.904 501.024 292.904 505.473C292.904 509.922 293.502 513.889 294.697 517.375C295.925 520.861 297.735 523.617 300.125 525.642C302.549 527.634 305.537 528.63 309.089 528.63ZM319 457.913L308.99 445.762L298.98 457.913H280.902V457.216L301.071 435.303H316.858L337.078 457.216V457.913H319Z" fill="#5B5D5D"/>
<path d="M535.685 417.23C539.412 412.995 544.971 410.559 550.909 410.559H593.677C596.899 415.896 603.09 419.492 610.229 419.492C620.716 419.492 629.181 411.719 629.181 402.089C629.181 392.459 620.716 384.685 610.229 384.685C603.28 384.685 597.278 388.108 593.93 393.213H553.31C540.17 393.213 527.788 398.666 519.575 408.006L502.329 427.672L514.458 441.479L535.685 417.23Z" fill="#5B5D5D"/>
<path d="M610.165 514.922C603.09 514.922 596.899 518.519 593.614 523.856H550.846C544.907 523.856 539.348 521.419 535.621 517.185L514.268 492.878L502.139 506.685L519.385 526.35C527.598 535.748 540.043 541.143 553.12 541.143H593.74C597.025 546.249 603.09 549.671 610.039 549.671C620.526 549.671 628.991 541.898 628.991 532.268C628.991 522.638 620.589 514.922 610.165 514.922Z" fill="#5B5D5D"/>
<path d="M505.993 450.587L452.738 390.081H386.279C382.868 386.89 378.13 384.975 372.824 384.975C362.337 384.975 353.872 392.749 353.872 402.379C353.872 412.009 362.337 419.782 372.824 419.782C378.256 419.782 383.184 417.636 386.658 414.271H440.103L452.674 428.6V428.948L483.629 464.161C483.377 465.322 483.25 466.482 483.25 467.642C483.25 468.86 483.377 470.021 483.629 471.123L471.437 484.872H471.374L463.73 493.573L452.548 506.162V506.278L439.913 520.665H386.658C386.469 520.433 386.216 520.259 386.027 520.085V480.289H385.9C389.564 477.098 391.839 472.631 391.839 467.7C391.839 458.07 383.373 450.297 372.887 450.297C362.4 450.297 353.935 458.07 353.935 467.7C353.935 472.689 356.209 477.156 359.873 480.289H359.747V520.085C356.209 523.275 353.935 527.684 353.935 532.557C353.935 542.187 362.4 549.961 372.887 549.961C378.13 549.961 382.868 547.988 386.343 544.798H387.669H452.485L505.803 484.698C514.521 483.131 521.154 476.112 521.154 467.642C521.154 459.23 514.647 452.211 505.993 450.587ZM372.887 409.746C368.465 409.746 364.864 406.44 364.864 402.379C364.864 398.318 368.465 395.012 372.887 395.012C377.309 395.012 380.91 398.26 380.91 402.379C380.91 406.498 377.309 409.746 372.887 409.746ZM372.887 459.985C377.309 459.985 380.91 463.291 380.91 467.352C380.91 471.413 377.309 474.72 372.887 474.72C368.465 474.72 364.864 471.413 364.864 467.352C364.801 463.291 368.401 459.985 372.887 459.985ZM372.887 539.693C368.465 539.693 364.864 536.386 364.864 532.325C364.864 528.264 368.465 524.958 372.887 524.958C377.309 524.958 380.91 528.264 380.91 532.325C380.91 536.386 377.309 539.693 372.887 539.693ZM502.202 475.01C497.78 475.01 494.179 471.703 494.179 467.642C494.179 463.581 497.78 460.275 502.202 460.275C506.624 460.275 510.225 463.581 510.225 467.642C510.225 471.703 506.624 475.01 502.202 475.01Z" fill="#076CA1"/>
</svg>
