<svg width="451" height="363" viewBox="0 0 451 363" fill="none" xmlns="http://www.w3.org/2000/svg">
<g opacity="0.8">
<path d="M293.83 362.038L151.992 362.038C142.735 362.038 135.231 354.442 135.231 345.071L135.231 342.6C135.231 333.229 142.735 325.633 151.992 325.633L293.83 325.633C303.086 325.633 310.59 333.229 310.59 342.6L310.59 345.071C310.59 354.442 303.086 362.038 293.83 362.038Z" fill="#323435"/>
<path d="M229.022 92.8398L216.776 92.8398L216.776 30.1631L229.022 30.1631L229.022 92.8398Z" fill="#323435"/>
<path d="M35.6612 279.432C16.3265 274.78 4.37796 255.141 8.97345 235.567C13.5689 215.993 32.9682 203.897 52.3029 208.549C71.6376 213.201 83.5862 232.841 78.9907 252.414C74.3952 271.988 54.9959 284.084 35.6612 279.432Z" fill="#616161"/>
<path d="M399.258 277.066C379.877 272.616 367.73 253.102 372.126 233.482C376.522 213.861 395.797 201.563 415.178 206.014C434.559 210.464 446.707 229.978 442.311 249.598C437.914 269.219 418.639 281.517 399.258 277.066Z" fill="#616161"/>
<path d="M230.025 79.2426C230.025 79.2426 376.332 77.465 399.455 205.843C422.578 334.22 298.892 336.529 263.295 338.953C247.173 340.061 212.649 340.177 182.183 339.622C114.731 338.445 67.0716 325.24 50.8583 261.894C48.9274 254.466 47.7131 246.866 47.2326 239.201C42.9683 169.668 89.3277 75.8259 230.025 79.2426Z" fill="#616161"/>
<path d="M123.898 274.637L336.449 277.985C341.752 278.079 347.022 277.114 351.956 275.145C356.891 273.175 361.393 270.24 365.206 266.507C369.018 262.774 372.066 258.316 374.175 253.389C376.284 248.462 377.412 243.162 377.495 237.793C377.586 232.423 376.63 227.088 374.682 222.092C372.734 217.096 369.832 212.539 366.143 208.679C362.453 204.82 358.048 201.735 353.18 199.6C348.312 197.465 343.076 196.323 337.771 196.239L125.22 192.892C119.916 192.794 114.645 193.757 109.709 195.725C104.773 197.694 100.27 200.629 96.4567 204.363C92.6435 208.097 89.5958 212.555 87.488 217.484C85.3803 222.412 84.2541 227.714 84.174 233.084C84.0804 238.454 85.0343 243.791 86.9812 248.788C88.9281 253.785 91.8296 258.344 95.5196 262.204C99.2096 266.064 103.616 269.149 108.485 271.283C113.355 273.416 118.592 274.556 123.898 274.637Z" fill="#323435"/>
<path d="M292.279 233.337C292.773 235.882 294.001 238.221 295.809 240.058C297.616 241.896 299.921 243.15 302.432 243.662C304.943 244.173 307.547 243.92 309.916 242.933C312.285 241.946 314.312 240.271 315.74 238.118C317.168 235.965 317.934 233.432 317.94 230.839C317.946 228.246 317.193 225.709 315.775 223.55C314.358 221.39 312.339 219.704 309.975 218.706C307.611 217.707 305.008 217.44 302.495 217.94C300.825 218.271 299.236 218.932 297.819 219.886C296.402 220.839 295.184 222.066 294.235 223.496C293.287 224.926 292.626 226.531 292.29 228.22C291.954 229.908 291.95 231.647 292.279 233.337Z" fill="black"/>
<path d="M143.851 230.937C144.341 233.483 145.567 235.825 147.372 237.666C149.177 239.507 151.482 240.765 153.993 241.28C156.505 241.795 159.111 241.544 161.481 240.559C163.852 239.574 165.881 237.899 167.311 235.747C168.742 233.594 169.509 231.061 169.517 228.466C169.524 225.872 168.771 223.334 167.353 221.173C165.935 219.012 163.916 217.325 161.551 216.327C159.186 215.328 156.582 215.062 154.067 215.562C150.7 216.232 147.732 218.227 145.817 221.109C143.902 223.992 143.195 227.527 143.851 230.937Z" fill="black"/>
<path d="M208.616 43.3398C200.735 35.3612 200.735 22.4252 208.616 14.4466C216.497 6.46798 229.275 6.46799 237.156 14.4466C245.037 22.4252 245.037 35.3611 237.156 43.3398C229.275 51.3184 216.497 51.3184 208.616 43.3398Z" fill="#616161"/>
<path d="M255.132 227.289C254.174 227.404 254.653 231.906 251.826 238.07C250.224 241.608 247.891 244.757 244.985 247.304C241.578 250.338 237.338 252.247 232.83 252.775C228.299 253.071 223.785 251.977 219.878 249.636C216.571 247.689 213.711 245.053 211.486 241.902C207.61 236.431 207.268 231.837 206.31 231.906C205.922 231.906 205.535 233.06 205.535 235.23C205.621 238.322 206.401 241.353 207.815 244.095C209.94 248.239 213.08 251.761 216.936 254.322C221.703 257.723 227.51 259.295 233.317 258.758C239.125 258.221 244.554 255.609 248.633 251.39C251.963 248.167 254.413 244.127 255.748 239.663C256.699 236.684 256.948 233.522 256.478 230.429C256.09 228.282 255.497 227.22 255.132 227.289Z" fill="black"/>
<path d="M60.3216 287.103C60.5496 287.103 57.9272 282.948 55.396 275.676C52.2481 266.152 50.2571 256.276 49.4671 246.265C48.5539 236.29 48.3253 226.262 48.783 216.254C48.9426 212.399 49.1251 209.329 49.3075 207.02C49.4615 205.904 49.4997 204.774 49.4215 203.65C49.1294 204.737 48.9385 205.85 48.8514 206.974C48.5322 209.121 48.2129 212.237 47.9393 216.208C47.2241 226.296 47.3385 236.427 48.2813 246.496C49.0838 256.601 51.2079 266.553 54.5979 276.092C55.6712 278.969 56.9674 281.755 58.4745 284.425C59.0133 285.37 59.6313 286.266 60.3216 287.103Z" fill="#323435"/>
<path d="M399.181 201.549C399.31 202.67 399.547 203.776 399.888 204.85C400.185 205.889 400.504 207.159 400.8 208.682C401.097 210.206 401.553 211.868 401.827 213.784C402.626 218.234 403.159 222.728 403.423 227.243C403.73 232.767 403.653 238.305 403.195 243.818C402.685 249.322 401.801 254.783 400.55 260.163C399.503 264.564 398.193 268.896 396.627 273.137C396.012 274.96 395.305 276.553 394.735 277.985C394.165 279.416 393.617 280.616 393.161 281.586C392.641 282.583 392.214 283.626 391.884 284.702C392.533 283.787 393.098 282.813 393.572 281.794C394.216 280.64 394.802 279.453 395.328 278.239C395.966 276.853 396.741 275.261 397.403 273.437C399.096 269.208 400.498 264.865 401.599 260.44C402.933 255.008 403.863 249.483 404.381 243.911C404.845 238.343 404.891 232.748 404.517 227.174C404.199 222.619 403.575 218.091 402.648 213.623C402.305 211.707 401.827 210.021 401.439 208.521C401.051 207.02 400.686 205.75 400.344 204.712C400.042 203.627 399.653 202.57 399.181 201.549Z" fill="#323435"/>
<path d="M248.565 88.8462C248.739 88.8629 248.915 88.8629 249.089 88.8462L250.617 89.0077C251.985 89.1462 253.992 89.1924 256.569 89.4925C263.84 90.2069 271.054 91.4178 278.164 93.1169C314.935 101.643 347.369 123.461 369.378 154.478C380.011 169.383 388.061 186.011 393.184 203.65C393.983 206.143 394.416 208.128 394.804 209.444L395.237 210.968C395.278 211.144 395.339 211.314 395.419 211.476C395.449 211.3 395.449 211.12 395.419 210.945C395.419 210.529 395.237 210.021 395.1 209.398C394.781 208.059 394.439 206.051 393.709 203.511C391.806 196.339 389.366 189.324 386.412 182.527C376.665 159.937 361.826 139.974 343.085 124.236C324.265 108.617 302.093 97.6747 278.346 92.2859C271.195 90.6409 263.93 89.5527 256.614 89.0308C254.015 88.8 252.054 88.8231 250.64 88.7538L249.089 88.7538C248.724 88.8 248.565 88.8231 248.565 88.8462Z" fill="black"/>
<path d="M391.702 266.557C392.616 265.128 393.322 263.573 393.8 261.94C396.505 254.225 397.765 246.068 397.517 237.885C397.582 236.187 397.382 234.488 396.924 232.853C396.559 232.853 397.061 240.563 395.601 249.89C394.142 259.216 391.36 266.419 391.702 266.557Z" fill="black"/>
<path d="M430.08 254.622C430.08 254.622 430.604 254.253 431.311 253.376C432.319 252.132 433.183 250.777 433.888 249.336C436.323 244.563 437.255 239.15 436.558 233.826C435.86 228.501 433.568 223.521 429.989 219.555C428.94 218.341 427.754 217.256 426.454 216.324C426.008 215.943 425.498 215.646 424.949 215.446C424.812 215.631 426.864 217.039 429.35 220.063C432.612 224.018 434.7 228.829 435.37 233.937C436.04 239.045 435.265 244.24 433.135 248.92C431.539 252.591 429.92 254.484 430.08 254.622Z" fill="black"/>
<path d="M221.588 14.6497C223.367 14.4514 225.16 14.4128 226.946 14.5343C229.073 14.7232 231.129 15.4028 232.956 16.521C234.783 17.6392 236.333 19.1662 237.487 20.9849C238.64 22.8036 239.367 24.8657 239.611 27.0129C239.856 29.1601 239.611 31.3354 238.895 33.372C238.28 35.061 237.517 36.6911 236.615 38.243C236.615 38.243 237.071 37.9659 237.71 37.2272C238.586 36.1585 239.28 34.9491 239.762 33.649C240.632 31.4933 240.976 29.1571 240.765 26.8382C240.555 24.5193 239.796 22.2859 238.552 20.3269C237.308 18.368 235.616 16.7412 233.62 15.5843C231.624 14.4273 229.382 13.7741 227.083 13.6801C225.718 13.5842 224.347 13.7168 223.024 14.0726C221.998 14.2342 221.588 14.5805 221.588 14.6497Z" fill="black"/>
<path d="M22.8328 226.62C23.0836 226.897 26.6181 223.457 31.9542 220.871C37.2902 218.286 42.1473 217.524 42.1017 217.155C38.3843 217.061 34.7091 217.969 31.4525 219.786C28.0245 221.238 25.0467 223.599 22.8328 226.62Z" fill="black"/>
<path d="M159.015 185.435C159.015 185.759 187.018 186.036 221.542 186.036C256.067 186.036 284.092 185.759 284.092 185.435C284.092 185.112 256.09 184.835 221.542 184.835C186.995 184.835 159.015 185.066 159.015 185.435Z" fill="black"/>
<path d="M265.735 329.788C266.077 329.886 266.429 329.94 266.784 329.95L269.84 330.227C271.163 330.342 272.782 330.435 274.674 330.481C276.567 330.527 278.71 330.619 281.082 330.481C285.848 330.481 291.503 330.134 297.774 329.465C304.56 328.666 311.298 327.486 317.955 325.933C324.597 324.32 331.144 322.332 337.566 319.977C342.798 318.037 347.928 315.826 352.936 313.351C355.216 312.336 356.972 311.274 358.637 310.373C360.301 309.473 361.715 308.665 362.855 308.065L365.478 306.449C365.789 306.274 366.079 306.065 366.344 305.826C366.344 305.826 365.979 305.826 365.364 306.241L362.627 307.649C361.464 308.296 360.028 309.058 358.34 309.958C356.653 310.858 354.737 311.782 352.571 312.751C348.284 314.783 343.062 316.953 337.179 319.1C324.392 323.741 311.127 326.9 297.637 328.518C291.435 329.257 285.802 329.673 281.082 329.788C278.802 329.927 276.521 329.788 274.674 329.788C272.827 329.788 271.185 329.788 269.863 329.788L266.807 329.788C266.452 329.728 266.09 329.728 265.735 329.788Z" fill="black"/>
</g>
</svg>
