<svg width="634" height="194" viewBox="0 0 634 194" fill="none" xmlns="http://www.w3.org/2000/svg">
<path d="M8.86456 159.79V57.7981H49.1037C56.8062 57.7981 63.38 59.176 68.8249 61.9316C74.303 64.6541 78.4696 68.5219 81.3249 73.5352C84.2134 78.5153 85.6576 84.3752 85.6576 91.1149C85.6576 97.8879 84.1968 103.715 81.2751 108.595C78.3534 113.442 74.1204 117.161 68.5759 119.75C63.0646 122.34 56.3912 123.635 48.5559 123.635H21.6136V106.304H45.0698C49.1867 106.304 52.6064 105.74 55.3288 104.611C58.0513 103.482 60.0765 101.789 61.4045 99.5313C62.7658 97.2737 63.4464 94.4682 63.4464 91.1149C63.4464 87.7285 62.7658 84.8732 61.4045 82.5492C60.0765 80.2251 58.0347 78.4655 55.279 77.2703C52.5566 76.0419 49.1203 75.4277 44.9702 75.4277H30.4284V159.79H8.86456ZM63.9444 113.376L89.293 159.79H65.4882L40.6873 113.376H63.9444ZM133.828 161.284C126.092 161.284 119.402 159.641 113.758 156.354C108.147 153.034 103.814 148.419 100.76 142.509C97.7052 136.567 96.178 129.677 96.178 121.842C96.178 113.94 97.7052 107.035 100.76 101.125C103.814 95.182 108.147 90.5671 113.758 87.2803C119.402 83.9602 126.092 82.3002 133.828 82.3002C141.563 82.3002 148.237 83.9602 153.847 87.2803C159.492 90.5671 163.841 95.182 166.895 101.125C169.95 107.035 171.477 113.94 171.477 121.842C171.477 129.677 169.95 136.567 166.895 142.509C163.841 148.419 159.492 153.034 153.847 156.354C148.237 159.641 141.563 161.284 133.828 161.284ZM133.927 144.85C137.446 144.85 140.385 143.854 142.742 141.862C145.099 139.837 146.875 137.081 148.071 133.595C149.299 130.109 149.913 126.142 149.913 121.693C149.913 117.244 149.299 113.276 148.071 109.79C146.875 106.304 145.099 103.549 142.742 101.523C140.385 99.4981 137.446 98.4855 133.927 98.4855C130.375 98.4855 127.387 99.4981 124.963 101.523C122.573 103.549 120.763 106.304 119.535 109.79C118.339 113.276 117.742 117.244 117.742 121.693C117.742 126.142 118.339 130.109 119.535 133.595C120.763 137.081 122.573 139.837 124.963 141.862C127.387 143.854 130.375 144.85 133.927 144.85ZM185.67 159.79V57.7981H206.885V96.1448H207.533C208.462 94.0864 209.807 91.9948 211.567 89.8699C213.36 87.7119 215.684 85.919 218.539 84.4914C221.427 83.0306 225.013 82.3002 229.296 82.3002C234.874 82.3002 240.02 83.761 244.734 86.6827C249.449 89.5711 253.217 93.937 256.039 99.7803C258.861 105.59 260.272 112.878 260.272 121.643C260.272 130.175 258.894 137.38 256.139 143.257C253.416 149.1 249.698 153.532 244.983 156.553C240.302 159.541 235.056 161.035 229.246 161.035C225.129 161.035 221.627 160.355 218.738 158.994C215.883 157.632 213.542 155.923 211.716 153.864C209.89 151.772 208.496 149.664 207.533 147.539H206.587V159.79H185.67ZM206.437 121.543C206.437 126.092 207.068 130.059 208.33 133.446C209.591 136.832 211.417 139.472 213.808 141.364C216.198 143.223 219.103 144.153 222.523 144.153C225.976 144.153 228.897 143.207 231.288 141.314C233.678 139.389 235.488 136.733 236.716 133.346C237.978 129.926 238.609 125.992 238.609 121.543C238.609 117.128 237.994 113.243 236.766 109.89C235.538 106.537 233.728 103.914 231.338 102.021C228.947 100.129 226.009 99.1827 222.523 99.1827C219.07 99.1827 216.148 100.096 213.758 101.922C211.401 103.748 209.591 106.337 208.33 109.691C207.068 113.044 206.437 116.995 206.437 121.543ZM308.99 161.284C301.254 161.284 294.564 159.641 288.92 156.354C283.309 153.034 278.976 148.419 275.922 142.509C272.868 136.567 271.34 129.677 271.34 121.842C271.34 113.94 272.868 107.035 275.922 101.125C278.976 95.182 283.309 90.5671 288.92 87.2803C294.564 83.9602 301.254 82.3002 308.99 82.3002C316.726 82.3002 323.399 83.9602 329.01 87.2803C334.654 90.5671 339.003 95.182 342.058 101.125C345.112 107.035 346.639 113.94 346.639 121.842C346.639 129.677 345.112 136.567 342.058 142.509C339.003 148.419 334.654 153.034 329.01 156.354C323.399 159.641 316.726 161.284 308.99 161.284ZM309.089 144.85C312.609 144.85 315.547 143.854 317.904 141.862C320.261 139.837 322.038 137.081 323.233 133.595C324.461 130.109 325.075 126.142 325.075 121.693C325.075 117.244 324.461 113.276 323.233 109.79C322.038 106.304 320.261 103.549 317.904 101.523C315.547 99.4981 312.609 98.4855 309.089 98.4855C305.537 98.4855 302.549 99.4981 300.125 101.523C297.735 103.549 295.925 106.304 294.697 109.79C293.502 113.276 292.904 117.244 292.904 121.693C292.904 126.142 293.502 130.109 294.697 133.595C295.925 137.081 297.735 139.837 300.125 141.862C302.549 143.854 305.537 144.85 309.089 144.85ZM319 74.1328L308.99 61.9814L298.98 74.1328H280.902V73.4356L301.071 51.5232H316.858L337.078 73.4356V74.1328H319Z" fill="#5B5D5D"/>
<path d="M535.685 33.4496C539.412 29.2148 544.971 26.7783 550.909 26.7783H593.677C596.899 32.1154 603.09 35.7122 610.229 35.7122C620.716 35.7122 629.181 27.9386 629.181 18.3087C629.181 8.67872 620.716 0.905151 610.229 0.905151C603.28 0.905151 597.278 4.32785 593.93 9.43288H553.31C540.17 9.43288 527.788 14.8859 519.575 24.2258L502.329 43.8917L514.458 57.6985L535.685 33.4496Z" fill="#5B5D5D"/>
<path d="M610.166 131.142C603.09 131.142 596.899 134.739 593.614 140.076H550.846C544.908 140.076 539.349 137.639 535.621 133.404L514.269 109.097L502.14 122.904L519.386 142.57C527.598 151.968 540.044 157.363 553.12 157.363H593.741C597.026 162.468 603.09 165.891 610.039 165.891C620.526 165.891 628.991 158.117 628.991 148.487C628.991 138.857 620.589 131.142 610.166 131.142Z" fill="#5B5D5D"/>
<path d="M505.993 66.8064L452.738 6.30025H386.279C382.868 3.10961 378.13 1.19519 372.824 1.19519C362.337 1.19519 353.872 8.96876 353.872 18.5987C353.872 28.2287 362.337 36.0022 372.824 36.0022C378.256 36.0022 383.184 33.8557 386.658 30.491H440.103L452.674 44.8199V45.168L483.629 80.3812C483.377 81.5414 483.25 82.7017 483.25 83.8619C483.25 85.0801 483.377 86.2404 483.629 87.3426L471.437 101.091H471.374L463.73 109.793L452.548 122.382V122.498L439.913 136.885H386.658C386.469 136.653 386.216 136.479 386.027 136.305V96.5084H385.9C389.564 93.3178 391.839 88.851 391.839 83.92C391.839 74.29 383.373 66.5164 372.887 66.5164C362.4 66.5164 353.935 74.29 353.935 83.92C353.935 88.909 356.209 93.3758 359.873 96.5084H359.747V136.305C356.209 139.495 353.935 143.904 353.935 148.777C353.935 158.407 362.4 166.181 372.887 166.181C378.13 166.181 382.868 164.208 386.343 161.017H387.669H452.485L505.803 100.917C514.521 99.351 521.154 92.3316 521.154 83.8619C521.154 75.4502 514.647 68.4308 505.993 66.8064ZM372.887 25.9661C368.465 25.9661 364.864 22.6595 364.864 18.5987C364.864 14.5379 368.465 11.2313 372.887 11.2313C377.309 11.2313 380.91 14.4799 380.91 18.5987C380.91 22.7175 377.309 25.9661 372.887 25.9661ZM372.887 76.2043C377.309 76.2043 380.91 79.5111 380.91 83.5719C380.91 87.6327 377.309 90.9393 372.887 90.9393C368.465 90.9393 364.864 87.6327 364.864 83.5719C364.801 79.5111 368.401 76.2043 372.887 76.2043ZM372.887 155.913C368.465 155.913 364.864 152.606 364.864 148.545C364.864 144.484 368.465 141.178 372.887 141.178C377.309 141.178 380.91 144.484 380.91 148.545C380.91 152.606 377.309 155.913 372.887 155.913ZM502.202 91.2293C497.78 91.2293 494.179 87.9227 494.179 83.8619C494.179 79.8011 497.78 76.4945 502.202 76.4945C506.624 76.4945 510.225 79.8011 510.225 83.8619C510.225 87.9227 506.624 91.2293 502.202 91.2293Z" fill="#076CA1"/>
</svg>
